<?xml version="1.0" encoding="UTF-8"?>
<svg width="158px" height="158px" viewBox="0 0 158 158" version="1.1" xmlns="http://www.w3.org/2000/svg" xmlns:xlink="http://www.w3.org/1999/xlink">
    <!-- Generator: Sketch 54.1 (76490) - https://sketchapp.com -->
    <title>products-cta-img1</title>
    <desc>Created with Sketch.</desc>
    <g id="products-cta-img1" stroke="none" stroke-width="1" fill="none" fill-rule="evenodd">
        <path d="M2.5,5 C1.11928813,5 0,3.88071187 0,2.5 C0,1.11928813 1.11928813,0 2.5,0 C3.88071187,0 5,1.11928813 5,2.5 C5,3.88071187 3.88071187,5 2.5,5 Z M19.5,5 C18.1192881,5 17,3.88071187 17,2.5 C17,1.11928813 18.1192881,0 19.5,0 C20.8807119,0 22,1.11928813 22,2.5 C22,3.88071187 20.8807119,5 19.5,5 Z M36.5,5 C35.1192881,5 34,3.88071187 34,2.5 C34,1.11928813 35.1192881,0 36.5,0 C37.8807119,0 39,1.11928813 39,2.5 C39,3.88071187 37.8807119,5 36.5,5 Z M53.5,5 C52.1192881,5 51,3.88071187 51,2.5 C51,1.11928813 52.1192881,0 53.5,0 C54.8807119,0 56,1.11928813 56,2.5 C56,3.88071187 54.8807119,5 53.5,5 Z M70.5,5 C69.1192881,5 68,3.88071187 68,2.5 C68,1.11928813 69.1192881,0 70.5,0 C71.8807119,0 73,1.11928813 73,2.5 C73,3.88071187 71.8807119,5 70.5,5 Z M87.5,5 C86.1192881,5 85,3.88071187 85,2.5 C85,1.11928813 86.1192881,0 87.5,0 C88.8807119,0 90,1.11928813 90,2.5 C90,3.88071187 88.8807119,5 87.5,5 Z M104.5,5 C103.119288,5 102,3.88071187 102,2.5 C102,1.11928813 103.119288,0 104.5,0 C105.880712,0 107,1.11928813 107,2.5 C107,3.88071187 105.880712,5 104.5,5 Z M121.5,5 C120.119288,5 119,3.88071187 119,2.5 C119,1.11928813 120.119288,0 121.5,0 C122.880712,0 124,1.11928813 124,2.5 C124,3.88071187 122.880712,5 121.5,5 Z M138.5,5 C137.119288,5 136,3.88071187 136,2.5 C136,1.11928813 137.119288,0 138.5,0 C139.880712,0 141,1.11928813 141,2.5 C141,3.88071187 139.880712,5 138.5,5 Z M155.5,5 C154.119288,5 153,3.88071187 153,2.5 C153,1.11928813 154.119288,0 155.5,0 C156.880712,0 158,1.11928813 158,2.5 C158,3.88071187 156.880712,5 155.5,5 Z M2.5,22 C1.11928813,22 0,20.8807119 0,19.5 C0,18.1192881 1.11928813,17 2.5,17 C3.88071187,17 5,18.1192881 5,19.5 C5,20.8807119 3.88071187,22 2.5,22 Z M19.5,22 C18.1192881,22 17,20.8807119 17,19.5 C17,18.1192881 18.1192881,17 19.5,17 C20.8807119,17 22,18.1192881 22,19.5 C22,20.8807119 20.8807119,22 19.5,22 Z M36.5,22 C35.1192881,22 34,20.8807119 34,19.5 C34,18.1192881 35.1192881,17 36.5,17 C37.8807119,17 39,18.1192881 39,19.5 C39,20.8807119 37.8807119,22 36.5,22 Z M53.5,22 C52.1192881,22 51,20.8807119 51,19.5 C51,18.1192881 52.1192881,17 53.5,17 C54.8807119,17 56,18.1192881 56,19.5 C56,20.8807119 54.8807119,22 53.5,22 Z M70.5,22 C69.1192881,22 68,20.8807119 68,19.5 C68,18.1192881 69.1192881,17 70.5,17 C71.8807119,17 73,18.1192881 73,19.5 C73,20.8807119 71.8807119,22 70.5,22 Z M87.5,22 C86.1192881,22 85,20.8807119 85,19.5 C85,18.1192881 86.1192881,17 87.5,17 C88.8807119,17 90,18.1192881 90,19.5 C90,20.8807119 88.8807119,22 87.5,22 Z M104.5,22 C103.119288,22 102,20.8807119 102,19.5 C102,18.1192881 103.119288,17 104.5,17 C105.880712,17 107,18.1192881 107,19.5 C107,20.8807119 105.880712,22 104.5,22 Z M121.5,22 C120.119288,22 119,20.8807119 119,19.5 C119,18.1192881 120.119288,17 121.5,17 C122.880712,17 124,18.1192881 124,19.5 C124,20.8807119 122.880712,22 121.5,22 Z M138.5,22 C137.119288,22 136,20.8807119 136,19.5 C136,18.1192881 137.119288,17 138.5,17 C139.880712,17 141,18.1192881 141,19.5 C141,20.8807119 139.880712,22 138.5,22 Z M155.5,22 C154.119288,22 153,20.8807119 153,19.5 C153,18.1192881 154.119288,17 155.5,17 C156.880712,17 158,18.1192881 158,19.5 C158,20.8807119 156.880712,22 155.5,22 Z M2.5,39 C1.11928813,39 0,37.8807119 0,36.5 C0,35.1192881 1.11928813,34 2.5,34 C3.88071187,34 5,35.1192881 5,36.5 C5,37.8807119 3.88071187,39 2.5,39 Z M19.5,39 C18.1192881,39 17,37.8807119 17,36.5 C17,35.1192881 18.1192881,34 19.5,34 C20.8807119,34 22,35.1192881 22,36.5 C22,37.8807119 20.8807119,39 19.5,39 Z M36.5,39 C35.1192881,39 34,37.8807119 34,36.5 C34,35.1192881 35.1192881,34 36.5,34 C37.8807119,34 39,35.1192881 39,36.5 C39,37.8807119 37.8807119,39 36.5,39 Z M53.5,39 C52.1192881,39 51,37.8807119 51,36.5 C51,35.1192881 52.1192881,34 53.5,34 C54.8807119,34 56,35.1192881 56,36.5 C56,37.8807119 54.8807119,39 53.5,39 Z M70.5,39 C69.1192881,39 68,37.8807119 68,36.5 C68,35.1192881 69.1192881,34 70.5,34 C71.8807119,34 73,35.1192881 73,36.5 C73,37.8807119 71.8807119,39 70.5,39 Z M87.5,39 C86.1192881,39 85,37.8807119 85,36.5 C85,35.1192881 86.1192881,34 87.5,34 C88.8807119,34 90,35.1192881 90,36.5 C90,37.8807119 88.8807119,39 87.5,39 Z M104.5,39 C103.119288,39 102,37.8807119 102,36.5 C102,35.1192881 103.119288,34 104.5,34 C105.880712,34 107,35.1192881 107,36.5 C107,37.8807119 105.880712,39 104.5,39 Z M121.5,39 C120.119288,39 119,37.8807119 119,36.5 C119,35.1192881 120.119288,34 121.5,34 C122.880712,34 124,35.1192881 124,36.5 C124,37.8807119 122.880712,39 121.5,39 Z M138.5,39 C137.119288,39 136,37.8807119 136,36.5 C136,35.1192881 137.119288,34 138.5,34 C139.880712,34 141,35.1192881 141,36.5 C141,37.8807119 139.880712,39 138.5,39 Z M155.5,39 C154.119288,39 153,37.8807119 153,36.5 C153,35.1192881 154.119288,34 155.5,34 C156.880712,34 158,35.1192881 158,36.5 C158,37.8807119 156.880712,39 155.5,39 Z M2.5,56 C1.11928813,56 0,54.8807119 0,53.5 C0,52.1192881 1.11928813,51 2.5,51 C3.88071187,51 5,52.1192881 5,53.5 C5,54.8807119 3.88071187,56 2.5,56 Z M19.5,56 C18.1192881,56 17,54.8807119 17,53.5 C17,52.1192881 18.1192881,51 19.5,51 C20.8807119,51 22,52.1192881 22,53.5 C22,54.8807119 20.8807119,56 19.5,56 Z M36.5,56 C35.1192881,56 34,54.8807119 34,53.5 C34,52.1192881 35.1192881,51 36.5,51 C37.8807119,51 39,52.1192881 39,53.5 C39,54.8807119 37.8807119,56 36.5,56 Z M53.5,56 C52.1192881,56 51,54.8807119 51,53.5 C51,52.1192881 52.1192881,51 53.5,51 C54.8807119,51 56,52.1192881 56,53.5 C56,54.8807119 54.8807119,56 53.5,56 Z M70.5,56 C69.1192881,56 68,54.8807119 68,53.5 C68,52.1192881 69.1192881,51 70.5,51 C71.8807119,51 73,52.1192881 73,53.5 C73,54.8807119 71.8807119,56 70.5,56 Z M87.5,56 C86.1192881,56 85,54.8807119 85,53.5 C85,52.1192881 86.1192881,51 87.5,51 C88.8807119,51 90,52.1192881 90,53.5 C90,54.8807119 88.8807119,56 87.5,56 Z M104.5,56 C103.119288,56 102,54.8807119 102,53.5 C102,52.1192881 103.119288,51 104.5,51 C105.880712,51 107,52.1192881 107,53.5 C107,54.8807119 105.880712,56 104.5,56 Z M121.5,56 C120.119288,56 119,54.8807119 119,53.5 C119,52.1192881 120.119288,51 121.5,51 C122.880712,51 124,52.1192881 124,53.5 C124,54.8807119 122.880712,56 121.5,56 Z M138.5,56 C137.119288,56 136,54.8807119 136,53.5 C136,52.1192881 137.119288,51 138.5,51 C139.880712,51 141,52.1192881 141,53.5 C141,54.8807119 139.880712,56 138.5,56 Z M155.5,56 C154.119288,56 153,54.8807119 153,53.5 C153,52.1192881 154.119288,51 155.5,51 C156.880712,51 158,52.1192881 158,53.5 C158,54.8807119 156.880712,56 155.5,56 Z M2.5,73 C1.11928813,73 0,71.8807119 0,70.5 C0,69.1192881 1.11928813,68 2.5,68 C3.88071187,68 5,69.1192881 5,70.5 C5,71.8807119 3.88071187,73 2.5,73 Z M19.5,73 C18.1192881,73 17,71.8807119 17,70.5 C17,69.1192881 18.1192881,68 19.5,68 C20.8807119,68 22,69.1192881 22,70.5 C22,71.8807119 20.8807119,73 19.5,73 Z M36.5,73 C35.1192881,73 34,71.8807119 34,70.5 C34,69.1192881 35.1192881,68 36.5,68 C37.8807119,68 39,69.1192881 39,70.5 C39,71.8807119 37.8807119,73 36.5,73 Z M53.5,73 C52.1192881,73 51,71.8807119 51,70.5 C51,69.1192881 52.1192881,68 53.5,68 C54.8807119,68 56,69.1192881 56,70.5 C56,71.8807119 54.8807119,73 53.5,73 Z M70.5,73 C69.1192881,73 68,71.8807119 68,70.5 C68,69.1192881 69.1192881,68 70.5,68 C71.8807119,68 73,69.1192881 73,70.5 C73,71.8807119 71.8807119,73 70.5,73 Z M87.5,73 C86.1192881,73 85,71.8807119 85,70.5 C85,69.1192881 86.1192881,68 87.5,68 C88.8807119,68 90,69.1192881 90,70.5 C90,71.8807119 88.8807119,73 87.5,73 Z M104.5,73 C103.119288,73 102,71.8807119 102,70.5 C102,69.1192881 103.119288,68 104.5,68 C105.880712,68 107,69.1192881 107,70.5 C107,71.8807119 105.880712,73 104.5,73 Z M121.5,73 C120.119288,73 119,71.8807119 119,70.5 C119,69.1192881 120.119288,68 121.5,68 C122.880712,68 124,69.1192881 124,70.5 C124,71.8807119 122.880712,73 121.5,73 Z M138.5,73 C137.119288,73 136,71.8807119 136,70.5 C136,69.1192881 137.119288,68 138.5,68 C139.880712,68 141,69.1192881 141,70.5 C141,71.8807119 139.880712,73 138.5,73 Z M155.5,73 C154.119288,73 153,71.8807119 153,70.5 C153,69.1192881 154.119288,68 155.5,68 C156.880712,68 158,69.1192881 158,70.5 C158,71.8807119 156.880712,73 155.5,73 Z M2.5,90 C1.11928813,90 0,88.8807119 0,87.5 C0,86.1192881 1.11928813,85 2.5,85 C3.88071187,85 5,86.1192881 5,87.5 C5,88.8807119 3.88071187,90 2.5,90 Z M19.5,90 C18.1192881,90 17,88.8807119 17,87.5 C17,86.1192881 18.1192881,85 19.5,85 C20.8807119,85 22,86.1192881 22,87.5 C22,88.8807119 20.8807119,90 19.5,90 Z M36.5,90 C35.1192881,90 34,88.8807119 34,87.5 C34,86.1192881 35.1192881,85 36.5,85 C37.8807119,85 39,86.1192881 39,87.5 C39,88.8807119 37.8807119,90 36.5,90 Z M53.5,90 C52.1192881,90 51,88.8807119 51,87.5 C51,86.1192881 52.1192881,85 53.5,85 C54.8807119,85 56,86.1192881 56,87.5 C56,88.8807119 54.8807119,90 53.5,90 Z M70.5,90 C69.1192881,90 68,88.8807119 68,87.5 C68,86.1192881 69.1192881,85 70.5,85 C71.8807119,85 73,86.1192881 73,87.5 C73,88.8807119 71.8807119,90 70.5,90 Z M87.5,90 C86.1192881,90 85,88.8807119 85,87.5 C85,86.1192881 86.1192881,85 87.5,85 C88.8807119,85 90,86.1192881 90,87.5 C90,88.8807119 88.8807119,90 87.5,90 Z M104.5,90 C103.119288,90 102,88.8807119 102,87.5 C102,86.1192881 103.119288,85 104.5,85 C105.880712,85 107,86.1192881 107,87.5 C107,88.8807119 105.880712,90 104.5,90 Z M121.5,90 C120.119288,90 119,88.8807119 119,87.5 C119,86.1192881 120.119288,85 121.5,85 C122.880712,85 124,86.1192881 124,87.5 C124,88.8807119 122.880712,90 121.5,90 Z M138.5,90 C137.119288,90 136,88.8807119 136,87.5 C136,86.1192881 137.119288,85 138.5,85 C139.880712,85 141,86.1192881 141,87.5 C141,88.8807119 139.880712,90 138.5,90 Z M155.5,90 C154.119288,90 153,88.8807119 153,87.5 C153,86.1192881 154.119288,85 155.5,85 C156.880712,85 158,86.1192881 158,87.5 C158,88.8807119 156.880712,90 155.5,90 Z M2.5,107 C1.11928813,107 0,105.880712 0,104.5 C0,103.119288 1.11928813,102 2.5,102 C3.88071187,102 5,103.119288 5,104.5 C5,105.880712 3.88071187,107 2.5,107 Z M19.5,107 C18.1192881,107 17,105.880712 17,104.5 C17,103.119288 18.1192881,102 19.5,102 C20.8807119,102 22,103.119288 22,104.5 C22,105.880712 20.8807119,107 19.5,107 Z M36.5,107 C35.1192881,107 34,105.880712 34,104.5 C34,103.119288 35.1192881,102 36.5,102 C37.8807119,102 39,103.119288 39,104.5 C39,105.880712 37.8807119,107 36.5,107 Z M53.5,107 C52.1192881,107 51,105.880712 51,104.5 C51,103.119288 52.1192881,102 53.5,102 C54.8807119,102 56,103.119288 56,104.5 C56,105.880712 54.8807119,107 53.5,107 Z M70.5,107 C69.1192881,107 68,105.880712 68,104.5 C68,103.119288 69.1192881,102 70.5,102 C71.8807119,102 73,103.119288 73,104.5 C73,105.880712 71.8807119,107 70.5,107 Z M87.5,107 C86.1192881,107 85,105.880712 85,104.5 C85,103.119288 86.1192881,102 87.5,102 C88.8807119,102 90,103.119288 90,104.5 C90,105.880712 88.8807119,107 87.5,107 Z M104.5,107 C103.119288,107 102,105.880712 102,104.5 C102,103.119288 103.119288,102 104.5,102 C105.880712,102 107,103.119288 107,104.5 C107,105.880712 105.880712,107 104.5,107 Z M121.5,107 C120.119288,107 119,105.880712 119,104.5 C119,103.119288 120.119288,102 121.5,102 C122.880712,102 124,103.119288 124,104.5 C124,105.880712 122.880712,107 121.5,107 Z M138.5,107 C137.119288,107 136,105.880712 136,104.5 C136,103.119288 137.119288,102 138.5,102 C139.880712,102 141,103.119288 141,104.5 C141,105.880712 139.880712,107 138.5,107 Z M155.5,107 C154.119288,107 153,105.880712 153,104.5 C153,103.119288 154.119288,102 155.5,102 C156.880712,102 158,103.119288 158,104.5 C158,105.880712 156.880712,107 155.5,107 Z M2.5,124 C1.11928813,124 0,122.880712 0,121.5 C0,120.119288 1.11928813,119 2.5,119 C3.88071187,119 5,120.119288 5,121.5 C5,122.880712 3.88071187,124 2.5,124 Z M19.5,124 C18.1192881,124 17,122.880712 17,121.5 C17,120.119288 18.1192881,119 19.5,119 C20.8807119,119 22,120.119288 22,121.5 C22,122.880712 20.8807119,124 19.5,124 Z M36.5,124 C35.1192881,124 34,122.880712 34,121.5 C34,120.119288 35.1192881,119 36.5,119 C37.8807119,119 39,120.119288 39,121.5 C39,122.880712 37.8807119,124 36.5,124 Z M53.5,124 C52.1192881,124 51,122.880712 51,121.5 C51,120.119288 52.1192881,119 53.5,119 C54.8807119,119 56,120.119288 56,121.5 C56,122.880712 54.8807119,124 53.5,124 Z M70.5,124 C69.1192881,124 68,122.880712 68,121.5 C68,120.119288 69.1192881,119 70.5,119 C71.8807119,119 73,120.119288 73,121.5 C73,122.880712 71.8807119,124 70.5,124 Z M87.5,124 C86.1192881,124 85,122.880712 85,121.5 C85,120.119288 86.1192881,119 87.5,119 C88.8807119,119 90,120.119288 90,121.5 C90,122.880712 88.8807119,124 87.5,124 Z M104.5,124 C103.119288,124 102,122.880712 102,121.5 C102,120.119288 103.119288,119 104.5,119 C105.880712,119 107,120.119288 107,121.5 C107,122.880712 105.880712,124 104.5,124 Z M121.5,124 C120.119288,124 119,122.880712 119,121.5 C119,120.119288 120.119288,119 121.5,119 C122.880712,119 124,120.119288 124,121.5 C124,122.880712 122.880712,124 121.5,124 Z M138.5,124 C137.119288,124 136,122.880712 136,121.5 C136,120.119288 137.119288,119 138.5,119 C139.880712,119 141,120.119288 141,121.5 C141,122.880712 139.880712,124 138.5,124 Z M155.5,124 C154.119288,124 153,122.880712 153,121.5 C153,120.119288 154.119288,119 155.5,119 C156.880712,119 158,120.119288 158,121.5 C158,122.880712 156.880712,124 155.5,124 Z M2.5,141 C1.11928813,141 0,139.880712 0,138.5 C0,137.119288 1.11928813,136 2.5,136 C3.88071187,136 5,137.119288 5,138.5 C5,139.880712 3.88071187,141 2.5,141 Z M19.5,141 C18.1192881,141 17,139.880712 17,138.5 C17,137.119288 18.1192881,136 19.5,136 C20.8807119,136 22,137.119288 22,138.5 C22,139.880712 20.8807119,141 19.5,141 Z M36.5,141 C35.1192881,141 34,139.880712 34,138.5 C34,137.119288 35.1192881,136 36.5,136 C37.8807119,136 39,137.119288 39,138.5 C39,139.880712 37.8807119,141 36.5,141 Z M53.5,141 C52.1192881,141 51,139.880712 51,138.5 C51,137.119288 52.1192881,136 53.5,136 C54.8807119,136 56,137.119288 56,138.5 C56,139.880712 54.8807119,141 53.5,141 Z M70.5,141 C69.1192881,141 68,139.880712 68,138.5 C68,137.119288 69.1192881,136 70.5,136 C71.8807119,136 73,137.119288 73,138.5 C73,139.880712 71.8807119,141 70.5,141 Z M87.5,141 C86.1192881,141 85,139.880712 85,138.5 C85,137.119288 86.1192881,136 87.5,136 C88.8807119,136 90,137.119288 90,138.5 C90,139.880712 88.8807119,141 87.5,141 Z M104.5,141 C103.119288,141 102,139.880712 102,138.5 C102,137.119288 103.119288,136 104.5,136 C105.880712,136 107,137.119288 107,138.5 C107,139.880712 105.880712,141 104.5,141 Z M121.5,141 C120.119288,141 119,139.880712 119,138.5 C119,137.119288 120.119288,136 121.5,136 C122.880712,136 124,137.119288 124,138.5 C124,139.880712 122.880712,141 121.5,141 Z M138.5,141 C137.119288,141 136,139.880712 136,138.5 C136,137.119288 137.119288,136 138.5,136 C139.880712,136 141,137.119288 141,138.5 C141,139.880712 139.880712,141 138.5,141 Z M155.5,141 C154.119288,141 153,139.880712 153,138.5 C153,137.119288 154.119288,136 155.5,136 C156.880712,136 158,137.119288 158,138.5 C158,139.880712 156.880712,141 155.5,141 Z M2.5,158 C1.11928813,158 0,156.880712 0,155.5 C0,154.119288 1.11928813,153 2.5,153 C3.88071187,153 5,154.119288 5,155.5 C5,156.880712 3.88071187,158 2.5,158 Z M19.5,158 C18.1192881,158 17,156.880712 17,155.5 C17,154.119288 18.1192881,153 19.5,153 C20.8807119,153 22,154.119288 22,155.5 C22,156.880712 20.8807119,158 19.5,158 Z M36.5,158 C35.1192881,158 34,156.880712 34,155.5 C34,154.119288 35.1192881,153 36.5,153 C37.8807119,153 39,154.119288 39,155.5 C39,156.880712 37.8807119,158 36.5,158 Z M53.5,158 C52.1192881,158 51,156.880712 51,155.5 C51,154.119288 52.1192881,153 53.5,153 C54.8807119,153 56,154.119288 56,155.5 C56,156.880712 54.8807119,158 53.5,158 Z M70.5,158 C69.1192881,158 68,156.880712 68,155.5 C68,154.119288 69.1192881,153 70.5,153 C71.8807119,153 73,154.119288 73,155.5 C73,156.880712 71.8807119,158 70.5,158 Z M87.5,158 C86.1192881,158 85,156.880712 85,155.5 C85,154.119288 86.1192881,153 87.5,153 C88.8807119,153 90,154.119288 90,155.5 C90,156.880712 88.8807119,158 87.5,158 Z M104.5,158 C103.119288,158 102,156.880712 102,155.5 C102,154.119288 103.119288,153 104.5,153 C105.880712,153 107,154.119288 107,155.5 C107,156.880712 105.880712,158 104.5,158 Z M121.5,158 C120.119288,158 119,156.880712 119,155.5 C119,154.119288 120.119288,153 121.5,153 C122.880712,153 124,154.119288 124,155.5 C124,156.880712 122.880712,158 121.5,158 Z M138.5,158 C137.119288,158 136,156.880712 136,155.5 C136,154.119288 137.119288,153 138.5,153 C139.880712,153 141,154.119288 141,155.5 C141,156.880712 139.880712,158 138.5,158 Z M155.5,158 C154.119288,158 153,156.880712 153,155.5 C153,154.119288 154.119288,153 155.5,153 C156.880712,153 158,154.119288 158,155.5 C158,156.880712 156.880712,158 155.5,158 Z" id="Combined-Shape-Copy-3" fill="#A8AABC"></path>
    </g>
</svg>