<?xml version="1.0" encoding="UTF-8"?>
<svg width="328px" height="158px" viewBox="0 0 328 158" version="1.1" xmlns="http://www.w3.org/2000/svg" xmlns:xlink="http://www.w3.org/1999/xlink">
    <!-- Generator: Sketch 54.1 (76490) - https://sketchapp.com -->
    <title>dots-purple</title>
    <desc>Created with Sketch.</desc>
    <g id="dots-purple" stroke="none" stroke-width="1" fill="none" fill-rule="evenodd">
        <g id="Dots" fill="#613DC1">
            <path d="M172.5,5 C171.119288,5 170,3.88071187 170,2.5 C170,1.11928813 171.119288,0 172.5,0 C173.880712,0 175,1.11928813 175,2.5 C175,3.88071187 173.880712,5 172.5,5 Z M189.5,5 C188.119288,5 187,3.88071187 187,2.5 C187,1.11928813 188.119288,0 189.5,0 C190.880712,0 192,1.11928813 192,2.5 C192,3.88071187 190.880712,5 189.5,5 Z M206.5,5 C205.119288,5 204,3.88071187 204,2.5 C204,1.11928813 205.119288,0 206.5,0 C207.880712,0 209,1.11928813 209,2.5 C209,3.88071187 207.880712,5 206.5,5 Z M223.5,5 C222.119288,5 221,3.88071187 221,2.5 C221,1.11928813 222.119288,0 223.5,0 C224.880712,0 226,1.11928813 226,2.5 C226,3.88071187 224.880712,5 223.5,5 Z M240.5,5 C239.119288,5 238,3.88071187 238,2.5 C238,1.11928813 239.119288,0 240.5,0 C241.880712,0 243,1.11928813 243,2.5 C243,3.88071187 241.880712,5 240.5,5 Z M257.5,5 C256.119288,5 255,3.88071187 255,2.5 C255,1.11928813 256.119288,0 257.5,0 C258.880712,0 260,1.11928813 260,2.5 C260,3.88071187 258.880712,5 257.5,5 Z M274.5,5 C273.119288,5 272,3.88071187 272,2.5 C272,1.11928813 273.119288,0 274.5,0 C275.880712,0 277,1.11928813 277,2.5 C277,3.88071187 275.880712,5 274.5,5 Z M291.5,5 C290.119288,5 289,3.88071187 289,2.5 C289,1.11928813 290.119288,0 291.5,0 C292.880712,0 294,1.11928813 294,2.5 C294,3.88071187 292.880712,5 291.5,5 Z M308.5,5 C307.119288,5 306,3.88071187 306,2.5 C306,1.11928813 307.119288,0 308.5,0 C309.880712,0 311,1.11928813 311,2.5 C311,3.88071187 309.880712,5 308.5,5 Z M325.5,5 C324.119288,5 323,3.88071187 323,2.5 C323,1.11928813 324.119288,0 325.5,0 C326.880712,0 328,1.11928813 328,2.5 C328,3.88071187 326.880712,5 325.5,5 Z M172.5,22 C171.119288,22 170,20.8807119 170,19.5 C170,18.1192881 171.119288,17 172.5,17 C173.880712,17 175,18.1192881 175,19.5 C175,20.8807119 173.880712,22 172.5,22 Z M189.5,22 C188.119288,22 187,20.8807119 187,19.5 C187,18.1192881 188.119288,17 189.5,17 C190.880712,17 192,18.1192881 192,19.5 C192,20.8807119 190.880712,22 189.5,22 Z M206.5,22 C205.119288,22 204,20.8807119 204,19.5 C204,18.1192881 205.119288,17 206.5,17 C207.880712,17 209,18.1192881 209,19.5 C209,20.8807119 207.880712,22 206.5,22 Z M223.5,22 C222.119288,22 221,20.8807119 221,19.5 C221,18.1192881 222.119288,17 223.5,17 C224.880712,17 226,18.1192881 226,19.5 C226,20.8807119 224.880712,22 223.5,22 Z M240.5,22 C239.119288,22 238,20.8807119 238,19.5 C238,18.1192881 239.119288,17 240.5,17 C241.880712,17 243,18.1192881 243,19.5 C243,20.8807119 241.880712,22 240.5,22 Z M257.5,22 C256.119288,22 255,20.8807119 255,19.5 C255,18.1192881 256.119288,17 257.5,17 C258.880712,17 260,18.1192881 260,19.5 C260,20.8807119 258.880712,22 257.5,22 Z M274.5,22 C273.119288,22 272,20.8807119 272,19.5 C272,18.1192881 273.119288,17 274.5,17 C275.880712,17 277,18.1192881 277,19.5 C277,20.8807119 275.880712,22 274.5,22 Z M291.5,22 C290.119288,22 289,20.8807119 289,19.5 C289,18.1192881 290.119288,17 291.5,17 C292.880712,17 294,18.1192881 294,19.5 C294,20.8807119 292.880712,22 291.5,22 Z M308.5,22 C307.119288,22 306,20.8807119 306,19.5 C306,18.1192881 307.119288,17 308.5,17 C309.880712,17 311,18.1192881 311,19.5 C311,20.8807119 309.880712,22 308.5,22 Z M325.5,22 C324.119288,22 323,20.8807119 323,19.5 C323,18.1192881 324.119288,17 325.5,17 C326.880712,17 328,18.1192881 328,19.5 C328,20.8807119 326.880712,22 325.5,22 Z M172.5,39 C171.119288,39 170,37.8807119 170,36.5 C170,35.1192881 171.119288,34 172.5,34 C173.880712,34 175,35.1192881 175,36.5 C175,37.8807119 173.880712,39 172.5,39 Z M189.5,39 C188.119288,39 187,37.8807119 187,36.5 C187,35.1192881 188.119288,34 189.5,34 C190.880712,34 192,35.1192881 192,36.5 C192,37.8807119 190.880712,39 189.5,39 Z M206.5,39 C205.119288,39 204,37.8807119 204,36.5 C204,35.1192881 205.119288,34 206.5,34 C207.880712,34 209,35.1192881 209,36.5 C209,37.8807119 207.880712,39 206.5,39 Z M223.5,39 C222.119288,39 221,37.8807119 221,36.5 C221,35.1192881 222.119288,34 223.5,34 C224.880712,34 226,35.1192881 226,36.5 C226,37.8807119 224.880712,39 223.5,39 Z M240.5,39 C239.119288,39 238,37.8807119 238,36.5 C238,35.1192881 239.119288,34 240.5,34 C241.880712,34 243,35.1192881 243,36.5 C243,37.8807119 241.880712,39 240.5,39 Z M257.5,39 C256.119288,39 255,37.8807119 255,36.5 C255,35.1192881 256.119288,34 257.5,34 C258.880712,34 260,35.1192881 260,36.5 C260,37.8807119 258.880712,39 257.5,39 Z M274.5,39 C273.119288,39 272,37.8807119 272,36.5 C272,35.1192881 273.119288,34 274.5,34 C275.880712,34 277,35.1192881 277,36.5 C277,37.8807119 275.880712,39 274.5,39 Z M291.5,39 C290.119288,39 289,37.8807119 289,36.5 C289,35.1192881 290.119288,34 291.5,34 C292.880712,34 294,35.1192881 294,36.5 C294,37.8807119 292.880712,39 291.5,39 Z M308.5,39 C307.119288,39 306,37.8807119 306,36.5 C306,35.1192881 307.119288,34 308.5,34 C309.880712,34 311,35.1192881 311,36.5 C311,37.8807119 309.880712,39 308.5,39 Z M325.5,39 C324.119288,39 323,37.8807119 323,36.5 C323,35.1192881 324.119288,34 325.5,34 C326.880712,34 328,35.1192881 328,36.5 C328,37.8807119 326.880712,39 325.5,39 Z M172.5,56 C171.119288,56 170,54.8807119 170,53.5 C170,52.1192881 171.119288,51 172.5,51 C173.880712,51 175,52.1192881 175,53.5 C175,54.8807119 173.880712,56 172.5,56 Z M189.5,56 C188.119288,56 187,54.8807119 187,53.5 C187,52.1192881 188.119288,51 189.5,51 C190.880712,51 192,52.1192881 192,53.5 C192,54.8807119 190.880712,56 189.5,56 Z M206.5,56 C205.119288,56 204,54.8807119 204,53.5 C204,52.1192881 205.119288,51 206.5,51 C207.880712,51 209,52.1192881 209,53.5 C209,54.8807119 207.880712,56 206.5,56 Z M223.5,56 C222.119288,56 221,54.8807119 221,53.5 C221,52.1192881 222.119288,51 223.5,51 C224.880712,51 226,52.1192881 226,53.5 C226,54.8807119 224.880712,56 223.5,56 Z M240.5,56 C239.119288,56 238,54.8807119 238,53.5 C238,52.1192881 239.119288,51 240.5,51 C241.880712,51 243,52.1192881 243,53.5 C243,54.8807119 241.880712,56 240.5,56 Z M257.5,56 C256.119288,56 255,54.8807119 255,53.5 C255,52.1192881 256.119288,51 257.5,51 C258.880712,51 260,52.1192881 260,53.5 C260,54.8807119 258.880712,56 257.5,56 Z M274.5,56 C273.119288,56 272,54.8807119 272,53.5 C272,52.1192881 273.119288,51 274.5,51 C275.880712,51 277,52.1192881 277,53.5 C277,54.8807119 275.880712,56 274.5,56 Z M291.5,56 C290.119288,56 289,54.8807119 289,53.5 C289,52.1192881 290.119288,51 291.5,51 C292.880712,51 294,52.1192881 294,53.5 C294,54.8807119 292.880712,56 291.5,56 Z M308.5,56 C307.119288,56 306,54.8807119 306,53.5 C306,52.1192881 307.119288,51 308.5,51 C309.880712,51 311,52.1192881 311,53.5 C311,54.8807119 309.880712,56 308.5,56 Z M325.5,56 C324.119288,56 323,54.8807119 323,53.5 C323,52.1192881 324.119288,51 325.5,51 C326.880712,51 328,52.1192881 328,53.5 C328,54.8807119 326.880712,56 325.5,56 Z M172.5,73 C171.119288,73 170,71.8807119 170,70.5 C170,69.1192881 171.119288,68 172.5,68 C173.880712,68 175,69.1192881 175,70.5 C175,71.8807119 173.880712,73 172.5,73 Z M189.5,73 C188.119288,73 187,71.8807119 187,70.5 C187,69.1192881 188.119288,68 189.5,68 C190.880712,68 192,69.1192881 192,70.5 C192,71.8807119 190.880712,73 189.5,73 Z M206.5,73 C205.119288,73 204,71.8807119 204,70.5 C204,69.1192881 205.119288,68 206.5,68 C207.880712,68 209,69.1192881 209,70.5 C209,71.8807119 207.880712,73 206.5,73 Z M223.5,73 C222.119288,73 221,71.8807119 221,70.5 C221,69.1192881 222.119288,68 223.5,68 C224.880712,68 226,69.1192881 226,70.5 C226,71.8807119 224.880712,73 223.5,73 Z M240.5,73 C239.119288,73 238,71.8807119 238,70.5 C238,69.1192881 239.119288,68 240.5,68 C241.880712,68 243,69.1192881 243,70.5 C243,71.8807119 241.880712,73 240.5,73 Z M257.5,73 C256.119288,73 255,71.8807119 255,70.5 C255,69.1192881 256.119288,68 257.5,68 C258.880712,68 260,69.1192881 260,70.5 C260,71.8807119 258.880712,73 257.5,73 Z M274.5,73 C273.119288,73 272,71.8807119 272,70.5 C272,69.1192881 273.119288,68 274.5,68 C275.880712,68 277,69.1192881 277,70.5 C277,71.8807119 275.880712,73 274.5,73 Z M291.5,73 C290.119288,73 289,71.8807119 289,70.5 C289,69.1192881 290.119288,68 291.5,68 C292.880712,68 294,69.1192881 294,70.5 C294,71.8807119 292.880712,73 291.5,73 Z M308.5,73 C307.119288,73 306,71.8807119 306,70.5 C306,69.1192881 307.119288,68 308.5,68 C309.880712,68 311,69.1192881 311,70.5 C311,71.8807119 309.880712,73 308.5,73 Z M325.5,73 C324.119288,73 323,71.8807119 323,70.5 C323,69.1192881 324.119288,68 325.5,68 C326.880712,68 328,69.1192881 328,70.5 C328,71.8807119 326.880712,73 325.5,73 Z M172.5,90 C171.119288,90 170,88.8807119 170,87.5 C170,86.1192881 171.119288,85 172.5,85 C173.880712,85 175,86.1192881 175,87.5 C175,88.8807119 173.880712,90 172.5,90 Z M189.5,90 C188.119288,90 187,88.8807119 187,87.5 C187,86.1192881 188.119288,85 189.5,85 C190.880712,85 192,86.1192881 192,87.5 C192,88.8807119 190.880712,90 189.5,90 Z M206.5,90 C205.119288,90 204,88.8807119 204,87.5 C204,86.1192881 205.119288,85 206.5,85 C207.880712,85 209,86.1192881 209,87.5 C209,88.8807119 207.880712,90 206.5,90 Z M223.5,90 C222.119288,90 221,88.8807119 221,87.5 C221,86.1192881 222.119288,85 223.5,85 C224.880712,85 226,86.1192881 226,87.5 C226,88.8807119 224.880712,90 223.5,90 Z M240.5,90 C239.119288,90 238,88.8807119 238,87.5 C238,86.1192881 239.119288,85 240.5,85 C241.880712,85 243,86.1192881 243,87.5 C243,88.8807119 241.880712,90 240.5,90 Z M257.5,90 C256.119288,90 255,88.8807119 255,87.5 C255,86.1192881 256.119288,85 257.5,85 C258.880712,85 260,86.1192881 260,87.5 C260,88.8807119 258.880712,90 257.5,90 Z M274.5,90 C273.119288,90 272,88.8807119 272,87.5 C272,86.1192881 273.119288,85 274.5,85 C275.880712,85 277,86.1192881 277,87.5 C277,88.8807119 275.880712,90 274.5,90 Z M291.5,90 C290.119288,90 289,88.8807119 289,87.5 C289,86.1192881 290.119288,85 291.5,85 C292.880712,85 294,86.1192881 294,87.5 C294,88.8807119 292.880712,90 291.5,90 Z M308.5,90 C307.119288,90 306,88.8807119 306,87.5 C306,86.1192881 307.119288,85 308.5,85 C309.880712,85 311,86.1192881 311,87.5 C311,88.8807119 309.880712,90 308.5,90 Z M325.5,90 C324.119288,90 323,88.8807119 323,87.5 C323,86.1192881 324.119288,85 325.5,85 C326.880712,85 328,86.1192881 328,87.5 C328,88.8807119 326.880712,90 325.5,90 Z M172.5,107 C171.119288,107 170,105.880712 170,104.5 C170,103.119288 171.119288,102 172.5,102 C173.880712,102 175,103.119288 175,104.5 C175,105.880712 173.880712,107 172.5,107 Z M189.5,107 C188.119288,107 187,105.880712 187,104.5 C187,103.119288 188.119288,102 189.5,102 C190.880712,102 192,103.119288 192,104.5 C192,105.880712 190.880712,107 189.5,107 Z M206.5,107 C205.119288,107 204,105.880712 204,104.5 C204,103.119288 205.119288,102 206.5,102 C207.880712,102 209,103.119288 209,104.5 C209,105.880712 207.880712,107 206.5,107 Z M223.5,107 C222.119288,107 221,105.880712 221,104.5 C221,103.119288 222.119288,102 223.5,102 C224.880712,102 226,103.119288 226,104.5 C226,105.880712 224.880712,107 223.5,107 Z M240.5,107 C239.119288,107 238,105.880712 238,104.5 C238,103.119288 239.119288,102 240.5,102 C241.880712,102 243,103.119288 243,104.5 C243,105.880712 241.880712,107 240.5,107 Z M257.5,107 C256.119288,107 255,105.880712 255,104.5 C255,103.119288 256.119288,102 257.5,102 C258.880712,102 260,103.119288 260,104.5 C260,105.880712 258.880712,107 257.5,107 Z M274.5,107 C273.119288,107 272,105.880712 272,104.5 C272,103.119288 273.119288,102 274.5,102 C275.880712,102 277,103.119288 277,104.5 C277,105.880712 275.880712,107 274.5,107 Z M291.5,107 C290.119288,107 289,105.880712 289,104.5 C289,103.119288 290.119288,102 291.5,102 C292.880712,102 294,103.119288 294,104.5 C294,105.880712 292.880712,107 291.5,107 Z M308.5,107 C307.119288,107 306,105.880712 306,104.5 C306,103.119288 307.119288,102 308.5,102 C309.880712,102 311,103.119288 311,104.5 C311,105.880712 309.880712,107 308.5,107 Z M325.5,107 C324.119288,107 323,105.880712 323,104.5 C323,103.119288 324.119288,102 325.5,102 C326.880712,102 328,103.119288 328,104.5 C328,105.880712 326.880712,107 325.5,107 Z M172.5,124 C171.119288,124 170,122.880712 170,121.5 C170,120.119288 171.119288,119 172.5,119 C173.880712,119 175,120.119288 175,121.5 C175,122.880712 173.880712,124 172.5,124 Z M189.5,124 C188.119288,124 187,122.880712 187,121.5 C187,120.119288 188.119288,119 189.5,119 C190.880712,119 192,120.119288 192,121.5 C192,122.880712 190.880712,124 189.5,124 Z M206.5,124 C205.119288,124 204,122.880712 204,121.5 C204,120.119288 205.119288,119 206.5,119 C207.880712,119 209,120.119288 209,121.5 C209,122.880712 207.880712,124 206.5,124 Z M223.5,124 C222.119288,124 221,122.880712 221,121.5 C221,120.119288 222.119288,119 223.5,119 C224.880712,119 226,120.119288 226,121.5 C226,122.880712 224.880712,124 223.5,124 Z M240.5,124 C239.119288,124 238,122.880712 238,121.5 C238,120.119288 239.119288,119 240.5,119 C241.880712,119 243,120.119288 243,121.5 C243,122.880712 241.880712,124 240.5,124 Z M257.5,124 C256.119288,124 255,122.880712 255,121.5 C255,120.119288 256.119288,119 257.5,119 C258.880712,119 260,120.119288 260,121.5 C260,122.880712 258.880712,124 257.5,124 Z M274.5,124 C273.119288,124 272,122.880712 272,121.5 C272,120.119288 273.119288,119 274.5,119 C275.880712,119 277,120.119288 277,121.5 C277,122.880712 275.880712,124 274.5,124 Z M291.5,124 C290.119288,124 289,122.880712 289,121.5 C289,120.119288 290.119288,119 291.5,119 C292.880712,119 294,120.119288 294,121.5 C294,122.880712 292.880712,124 291.5,124 Z M308.5,124 C307.119288,124 306,122.880712 306,121.5 C306,120.119288 307.119288,119 308.5,119 C309.880712,119 311,120.119288 311,121.5 C311,122.880712 309.880712,124 308.5,124 Z M325.5,124 C324.119288,124 323,122.880712 323,121.5 C323,120.119288 324.119288,119 325.5,119 C326.880712,119 328,120.119288 328,121.5 C328,122.880712 326.880712,124 325.5,124 Z M172.5,141 C171.119288,141 170,139.880712 170,138.5 C170,137.119288 171.119288,136 172.5,136 C173.880712,136 175,137.119288 175,138.5 C175,139.880712 173.880712,141 172.5,141 Z M189.5,141 C188.119288,141 187,139.880712 187,138.5 C187,137.119288 188.119288,136 189.5,136 C190.880712,136 192,137.119288 192,138.5 C192,139.880712 190.880712,141 189.5,141 Z M206.5,141 C205.119288,141 204,139.880712 204,138.5 C204,137.119288 205.119288,136 206.5,136 C207.880712,136 209,137.119288 209,138.5 C209,139.880712 207.880712,141 206.5,141 Z M223.5,141 C222.119288,141 221,139.880712 221,138.5 C221,137.119288 222.119288,136 223.5,136 C224.880712,136 226,137.119288 226,138.5 C226,139.880712 224.880712,141 223.5,141 Z M240.5,141 C239.119288,141 238,139.880712 238,138.5 C238,137.119288 239.119288,136 240.5,136 C241.880712,136 243,137.119288 243,138.5 C243,139.880712 241.880712,141 240.5,141 Z M257.5,141 C256.119288,141 255,139.880712 255,138.5 C255,137.119288 256.119288,136 257.5,136 C258.880712,136 260,137.119288 260,138.5 C260,139.880712 258.880712,141 257.5,141 Z M274.5,141 C273.119288,141 272,139.880712 272,138.5 C272,137.119288 273.119288,136 274.5,136 C275.880712,136 277,137.119288 277,138.5 C277,139.880712 275.880712,141 274.5,141 Z M291.5,141 C290.119288,141 289,139.880712 289,138.5 C289,137.119288 290.119288,136 291.5,136 C292.880712,136 294,137.119288 294,138.5 C294,139.880712 292.880712,141 291.5,141 Z M308.5,141 C307.119288,141 306,139.880712 306,138.5 C306,137.119288 307.119288,136 308.5,136 C309.880712,136 311,137.119288 311,138.5 C311,139.880712 309.880712,141 308.5,141 Z M325.5,141 C324.119288,141 323,139.880712 323,138.5 C323,137.119288 324.119288,136 325.5,136 C326.880712,136 328,137.119288 328,138.5 C328,139.880712 326.880712,141 325.5,141 Z M172.5,158 C171.119288,158 170,156.880712 170,155.5 C170,154.119288 171.119288,153 172.5,153 C173.880712,153 175,154.119288 175,155.5 C175,156.880712 173.880712,158 172.5,158 Z M189.5,158 C188.119288,158 187,156.880712 187,155.5 C187,154.119288 188.119288,153 189.5,153 C190.880712,153 192,154.119288 192,155.5 C192,156.880712 190.880712,158 189.5,158 Z M206.5,158 C205.119288,158 204,156.880712 204,155.5 C204,154.119288 205.119288,153 206.5,153 C207.880712,153 209,154.119288 209,155.5 C209,156.880712 207.880712,158 206.5,158 Z M223.5,158 C222.119288,158 221,156.880712 221,155.5 C221,154.119288 222.119288,153 223.5,153 C224.880712,153 226,154.119288 226,155.5 C226,156.880712 224.880712,158 223.5,158 Z M240.5,158 C239.119288,158 238,156.880712 238,155.5 C238,154.119288 239.119288,153 240.5,153 C241.880712,153 243,154.119288 243,155.5 C243,156.880712 241.880712,158 240.5,158 Z M257.5,158 C256.119288,158 255,156.880712 255,155.5 C255,154.119288 256.119288,153 257.5,153 C258.880712,153 260,154.119288 260,155.5 C260,156.880712 258.880712,158 257.5,158 Z M274.5,158 C273.119288,158 272,156.880712 272,155.5 C272,154.119288 273.119288,153 274.5,153 C275.880712,153 277,154.119288 277,155.5 C277,156.880712 275.880712,158 274.5,158 Z M291.5,158 C290.119288,158 289,156.880712 289,155.5 C289,154.119288 290.119288,153 291.5,153 C292.880712,153 294,154.119288 294,155.5 C294,156.880712 292.880712,158 291.5,158 Z M308.5,158 C307.119288,158 306,156.880712 306,155.5 C306,154.119288 307.119288,153 308.5,153 C309.880712,153 311,154.119288 311,155.5 C311,156.880712 309.880712,158 308.5,158 Z M325.5,158 C324.119288,158 323,156.880712 323,155.5 C323,154.119288 324.119288,153 325.5,153 C326.880712,153 328,154.119288 328,155.5 C328,156.880712 326.880712,158 325.5,158 Z" id="Combined-Shape-Copy"></path>
            <path d="M2.5,5 C1.11928813,5 0,3.88071187 0,2.5 C0,1.11928813 1.11928813,0 2.5,0 C3.88071187,0 5,1.11928813 5,2.5 C5,3.88071187 3.88071187,5 2.5,5 Z M19.5,5 C18.1192881,5 17,3.88071187 17,2.5 C17,1.11928813 18.1192881,0 19.5,0 C20.8807119,0 22,1.11928813 22,2.5 C22,3.88071187 20.8807119,5 19.5,5 Z M36.5,5 C35.1192881,5 34,3.88071187 34,2.5 C34,1.11928813 35.1192881,0 36.5,0 C37.8807119,0 39,1.11928813 39,2.5 C39,3.88071187 37.8807119,5 36.5,5 Z M53.5,5 C52.1192881,5 51,3.88071187 51,2.5 C51,1.11928813 52.1192881,0 53.5,0 C54.8807119,0 56,1.11928813 56,2.5 C56,3.88071187 54.8807119,5 53.5,5 Z M70.5,5 C69.1192881,5 68,3.88071187 68,2.5 C68,1.11928813 69.1192881,0 70.5,0 C71.8807119,0 73,1.11928813 73,2.5 C73,3.88071187 71.8807119,5 70.5,5 Z M87.5,5 C86.1192881,5 85,3.88071187 85,2.5 C85,1.11928813 86.1192881,0 87.5,0 C88.8807119,0 90,1.11928813 90,2.5 C90,3.88071187 88.8807119,5 87.5,5 Z M104.5,5 C103.119288,5 102,3.88071187 102,2.5 C102,1.11928813 103.119288,0 104.5,0 C105.880712,0 107,1.11928813 107,2.5 C107,3.88071187 105.880712,5 104.5,5 Z M121.5,5 C120.119288,5 119,3.88071187 119,2.5 C119,1.11928813 120.119288,0 121.5,0 C122.880712,0 124,1.11928813 124,2.5 C124,3.88071187 122.880712,5 121.5,5 Z M138.5,5 C137.119288,5 136,3.88071187 136,2.5 C136,1.11928813 137.119288,0 138.5,0 C139.880712,0 141,1.11928813 141,2.5 C141,3.88071187 139.880712,5 138.5,5 Z M155.5,5 C154.119288,5 153,3.88071187 153,2.5 C153,1.11928813 154.119288,0 155.5,0 C156.880712,0 158,1.11928813 158,2.5 C158,3.88071187 156.880712,5 155.5,5 Z M2.5,22 C1.11928813,22 0,20.8807119 0,19.5 C0,18.1192881 1.11928813,17 2.5,17 C3.88071187,17 5,18.1192881 5,19.5 C5,20.8807119 3.88071187,22 2.5,22 Z M19.5,22 C18.1192881,22 17,20.8807119 17,19.5 C17,18.1192881 18.1192881,17 19.5,17 C20.8807119,17 22,18.1192881 22,19.5 C22,20.8807119 20.8807119,22 19.5,22 Z M36.5,22 C35.1192881,22 34,20.8807119 34,19.5 C34,18.1192881 35.1192881,17 36.5,17 C37.8807119,17 39,18.1192881 39,19.5 C39,20.8807119 37.8807119,22 36.5,22 Z M53.5,22 C52.1192881,22 51,20.8807119 51,19.5 C51,18.1192881 52.1192881,17 53.5,17 C54.8807119,17 56,18.1192881 56,19.5 C56,20.8807119 54.8807119,22 53.5,22 Z M70.5,22 C69.1192881,22 68,20.8807119 68,19.5 C68,18.1192881 69.1192881,17 70.5,17 C71.8807119,17 73,18.1192881 73,19.5 C73,20.8807119 71.8807119,22 70.5,22 Z M87.5,22 C86.1192881,22 85,20.8807119 85,19.5 C85,18.1192881 86.1192881,17 87.5,17 C88.8807119,17 90,18.1192881 90,19.5 C90,20.8807119 88.8807119,22 87.5,22 Z M104.5,22 C103.119288,22 102,20.8807119 102,19.5 C102,18.1192881 103.119288,17 104.5,17 C105.880712,17 107,18.1192881 107,19.5 C107,20.8807119 105.880712,22 104.5,22 Z M121.5,22 C120.119288,22 119,20.8807119 119,19.5 C119,18.1192881 120.119288,17 121.5,17 C122.880712,17 124,18.1192881 124,19.5 C124,20.8807119 122.880712,22 121.5,22 Z M138.5,22 C137.119288,22 136,20.8807119 136,19.5 C136,18.1192881 137.119288,17 138.5,17 C139.880712,17 141,18.1192881 141,19.5 C141,20.8807119 139.880712,22 138.5,22 Z M155.5,22 C154.119288,22 153,20.8807119 153,19.5 C153,18.1192881 154.119288,17 155.5,17 C156.880712,17 158,18.1192881 158,19.5 C158,20.8807119 156.880712,22 155.5,22 Z M2.5,39 C1.11928813,39 0,37.8807119 0,36.5 C0,35.1192881 1.11928813,34 2.5,34 C3.88071187,34 5,35.1192881 5,36.5 C5,37.8807119 3.88071187,39 2.5,39 Z M19.5,39 C18.1192881,39 17,37.8807119 17,36.5 C17,35.1192881 18.1192881,34 19.5,34 C20.8807119,34 22,35.1192881 22,36.5 C22,37.8807119 20.8807119,39 19.5,39 Z M36.5,39 C35.1192881,39 34,37.8807119 34,36.5 C34,35.1192881 35.1192881,34 36.5,34 C37.8807119,34 39,35.1192881 39,36.5 C39,37.8807119 37.8807119,39 36.5,39 Z M53.5,39 C52.1192881,39 51,37.8807119 51,36.5 C51,35.1192881 52.1192881,34 53.5,34 C54.8807119,34 56,35.1192881 56,36.5 C56,37.8807119 54.8807119,39 53.5,39 Z M70.5,39 C69.1192881,39 68,37.8807119 68,36.5 C68,35.1192881 69.1192881,34 70.5,34 C71.8807119,34 73,35.1192881 73,36.5 C73,37.8807119 71.8807119,39 70.5,39 Z M87.5,39 C86.1192881,39 85,37.8807119 85,36.5 C85,35.1192881 86.1192881,34 87.5,34 C88.8807119,34 90,35.1192881 90,36.5 C90,37.8807119 88.8807119,39 87.5,39 Z M104.5,39 C103.119288,39 102,37.8807119 102,36.5 C102,35.1192881 103.119288,34 104.5,34 C105.880712,34 107,35.1192881 107,36.5 C107,37.8807119 105.880712,39 104.5,39 Z M121.5,39 C120.119288,39 119,37.8807119 119,36.5 C119,35.1192881 120.119288,34 121.5,34 C122.880712,34 124,35.1192881 124,36.5 C124,37.8807119 122.880712,39 121.5,39 Z M138.5,39 C137.119288,39 136,37.8807119 136,36.5 C136,35.1192881 137.119288,34 138.5,34 C139.880712,34 141,35.1192881 141,36.5 C141,37.8807119 139.880712,39 138.5,39 Z M155.5,39 C154.119288,39 153,37.8807119 153,36.5 C153,35.1192881 154.119288,34 155.5,34 C156.880712,34 158,35.1192881 158,36.5 C158,37.8807119 156.880712,39 155.5,39 Z M2.5,56 C1.11928813,56 0,54.8807119 0,53.5 C0,52.1192881 1.11928813,51 2.5,51 C3.88071187,51 5,52.1192881 5,53.5 C5,54.8807119 3.88071187,56 2.5,56 Z M19.5,56 C18.1192881,56 17,54.8807119 17,53.5 C17,52.1192881 18.1192881,51 19.5,51 C20.8807119,51 22,52.1192881 22,53.5 C22,54.8807119 20.8807119,56 19.5,56 Z M36.5,56 C35.1192881,56 34,54.8807119 34,53.5 C34,52.1192881 35.1192881,51 36.5,51 C37.8807119,51 39,52.1192881 39,53.5 C39,54.8807119 37.8807119,56 36.5,56 Z M53.5,56 C52.1192881,56 51,54.8807119 51,53.5 C51,52.1192881 52.1192881,51 53.5,51 C54.8807119,51 56,52.1192881 56,53.5 C56,54.8807119 54.8807119,56 53.5,56 Z M70.5,56 C69.1192881,56 68,54.8807119 68,53.5 C68,52.1192881 69.1192881,51 70.5,51 C71.8807119,51 73,52.1192881 73,53.5 C73,54.8807119 71.8807119,56 70.5,56 Z M87.5,56 C86.1192881,56 85,54.8807119 85,53.5 C85,52.1192881 86.1192881,51 87.5,51 C88.8807119,51 90,52.1192881 90,53.5 C90,54.8807119 88.8807119,56 87.5,56 Z M104.5,56 C103.119288,56 102,54.8807119 102,53.5 C102,52.1192881 103.119288,51 104.5,51 C105.880712,51 107,52.1192881 107,53.5 C107,54.8807119 105.880712,56 104.5,56 Z M121.5,56 C120.119288,56 119,54.8807119 119,53.5 C119,52.1192881 120.119288,51 121.5,51 C122.880712,51 124,52.1192881 124,53.5 C124,54.8807119 122.880712,56 121.5,56 Z M138.5,56 C137.119288,56 136,54.8807119 136,53.5 C136,52.1192881 137.119288,51 138.5,51 C139.880712,51 141,52.1192881 141,53.5 C141,54.8807119 139.880712,56 138.5,56 Z M155.5,56 C154.119288,56 153,54.8807119 153,53.5 C153,52.1192881 154.119288,51 155.5,51 C156.880712,51 158,52.1192881 158,53.5 C158,54.8807119 156.880712,56 155.5,56 Z M2.5,73 C1.11928813,73 0,71.8807119 0,70.5 C0,69.1192881 1.11928813,68 2.5,68 C3.88071187,68 5,69.1192881 5,70.5 C5,71.8807119 3.88071187,73 2.5,73 Z M19.5,73 C18.1192881,73 17,71.8807119 17,70.5 C17,69.1192881 18.1192881,68 19.5,68 C20.8807119,68 22,69.1192881 22,70.5 C22,71.8807119 20.8807119,73 19.5,73 Z M36.5,73 C35.1192881,73 34,71.8807119 34,70.5 C34,69.1192881 35.1192881,68 36.5,68 C37.8807119,68 39,69.1192881 39,70.5 C39,71.8807119 37.8807119,73 36.5,73 Z M53.5,73 C52.1192881,73 51,71.8807119 51,70.5 C51,69.1192881 52.1192881,68 53.5,68 C54.8807119,68 56,69.1192881 56,70.5 C56,71.8807119 54.8807119,73 53.5,73 Z M70.5,73 C69.1192881,73 68,71.8807119 68,70.5 C68,69.1192881 69.1192881,68 70.5,68 C71.8807119,68 73,69.1192881 73,70.5 C73,71.8807119 71.8807119,73 70.5,73 Z M87.5,73 C86.1192881,73 85,71.8807119 85,70.5 C85,69.1192881 86.1192881,68 87.5,68 C88.8807119,68 90,69.1192881 90,70.5 C90,71.8807119 88.8807119,73 87.5,73 Z M104.5,73 C103.119288,73 102,71.8807119 102,70.5 C102,69.1192881 103.119288,68 104.5,68 C105.880712,68 107,69.1192881 107,70.5 C107,71.8807119 105.880712,73 104.5,73 Z M121.5,73 C120.119288,73 119,71.8807119 119,70.5 C119,69.1192881 120.119288,68 121.5,68 C122.880712,68 124,69.1192881 124,70.5 C124,71.8807119 122.880712,73 121.5,73 Z M138.5,73 C137.119288,73 136,71.8807119 136,70.5 C136,69.1192881 137.119288,68 138.5,68 C139.880712,68 141,69.1192881 141,70.5 C141,71.8807119 139.880712,73 138.5,73 Z M155.5,73 C154.119288,73 153,71.8807119 153,70.5 C153,69.1192881 154.119288,68 155.5,68 C156.880712,68 158,69.1192881 158,70.5 C158,71.8807119 156.880712,73 155.5,73 Z M2.5,90 C1.11928813,90 0,88.8807119 0,87.5 C0,86.1192881 1.11928813,85 2.5,85 C3.88071187,85 5,86.1192881 5,87.5 C5,88.8807119 3.88071187,90 2.5,90 Z M19.5,90 C18.1192881,90 17,88.8807119 17,87.5 C17,86.1192881 18.1192881,85 19.5,85 C20.8807119,85 22,86.1192881 22,87.5 C22,88.8807119 20.8807119,90 19.5,90 Z M36.5,90 C35.1192881,90 34,88.8807119 34,87.5 C34,86.1192881 35.1192881,85 36.5,85 C37.8807119,85 39,86.1192881 39,87.5 C39,88.8807119 37.8807119,90 36.5,90 Z M53.5,90 C52.1192881,90 51,88.8807119 51,87.5 C51,86.1192881 52.1192881,85 53.5,85 C54.8807119,85 56,86.1192881 56,87.5 C56,88.8807119 54.8807119,90 53.5,90 Z M70.5,90 C69.1192881,90 68,88.8807119 68,87.5 C68,86.1192881 69.1192881,85 70.5,85 C71.8807119,85 73,86.1192881 73,87.5 C73,88.8807119 71.8807119,90 70.5,90 Z M87.5,90 C86.1192881,90 85,88.8807119 85,87.5 C85,86.1192881 86.1192881,85 87.5,85 C88.8807119,85 90,86.1192881 90,87.5 C90,88.8807119 88.8807119,90 87.5,90 Z M104.5,90 C103.119288,90 102,88.8807119 102,87.5 C102,86.1192881 103.119288,85 104.5,85 C105.880712,85 107,86.1192881 107,87.5 C107,88.8807119 105.880712,90 104.5,90 Z M121.5,90 C120.119288,90 119,88.8807119 119,87.5 C119,86.1192881 120.119288,85 121.5,85 C122.880712,85 124,86.1192881 124,87.5 C124,88.8807119 122.880712,90 121.5,90 Z M138.5,90 C137.119288,90 136,88.8807119 136,87.5 C136,86.1192881 137.119288,85 138.5,85 C139.880712,85 141,86.1192881 141,87.5 C141,88.8807119 139.880712,90 138.5,90 Z M155.5,90 C154.119288,90 153,88.8807119 153,87.5 C153,86.1192881 154.119288,85 155.5,85 C156.880712,85 158,86.1192881 158,87.5 C158,88.8807119 156.880712,90 155.5,90 Z M2.5,107 C1.11928813,107 0,105.880712 0,104.5 C0,103.119288 1.11928813,102 2.5,102 C3.88071187,102 5,103.119288 5,104.5 C5,105.880712 3.88071187,107 2.5,107 Z M19.5,107 C18.1192881,107 17,105.880712 17,104.5 C17,103.119288 18.1192881,102 19.5,102 C20.8807119,102 22,103.119288 22,104.5 C22,105.880712 20.8807119,107 19.5,107 Z M36.5,107 C35.1192881,107 34,105.880712 34,104.5 C34,103.119288 35.1192881,102 36.5,102 C37.8807119,102 39,103.119288 39,104.5 C39,105.880712 37.8807119,107 36.5,107 Z M53.5,107 C52.1192881,107 51,105.880712 51,104.5 C51,103.119288 52.1192881,102 53.5,102 C54.8807119,102 56,103.119288 56,104.5 C56,105.880712 54.8807119,107 53.5,107 Z M70.5,107 C69.1192881,107 68,105.880712 68,104.5 C68,103.119288 69.1192881,102 70.5,102 C71.8807119,102 73,103.119288 73,104.5 C73,105.880712 71.8807119,107 70.5,107 Z M87.5,107 C86.1192881,107 85,105.880712 85,104.5 C85,103.119288 86.1192881,102 87.5,102 C88.8807119,102 90,103.119288 90,104.5 C90,105.880712 88.8807119,107 87.5,107 Z M104.5,107 C103.119288,107 102,105.880712 102,104.5 C102,103.119288 103.119288,102 104.5,102 C105.880712,102 107,103.119288 107,104.5 C107,105.880712 105.880712,107 104.5,107 Z M121.5,107 C120.119288,107 119,105.880712 119,104.5 C119,103.119288 120.119288,102 121.5,102 C122.880712,102 124,103.119288 124,104.5 C124,105.880712 122.880712,107 121.5,107 Z M138.5,107 C137.119288,107 136,105.880712 136,104.5 C136,103.119288 137.119288,102 138.5,102 C139.880712,102 141,103.119288 141,104.5 C141,105.880712 139.880712,107 138.5,107 Z M155.5,107 C154.119288,107 153,105.880712 153,104.5 C153,103.119288 154.119288,102 155.5,102 C156.880712,102 158,103.119288 158,104.5 C158,105.880712 156.880712,107 155.5,107 Z M2.5,124 C1.11928813,124 0,122.880712 0,121.5 C0,120.119288 1.11928813,119 2.5,119 C3.88071187,119 5,120.119288 5,121.5 C5,122.880712 3.88071187,124 2.5,124 Z M19.5,124 C18.1192881,124 17,122.880712 17,121.5 C17,120.119288 18.1192881,119 19.5,119 C20.8807119,119 22,120.119288 22,121.5 C22,122.880712 20.8807119,124 19.5,124 Z M36.5,124 C35.1192881,124 34,122.880712 34,121.5 C34,120.119288 35.1192881,119 36.5,119 C37.8807119,119 39,120.119288 39,121.5 C39,122.880712 37.8807119,124 36.5,124 Z M53.5,124 C52.1192881,124 51,122.880712 51,121.5 C51,120.119288 52.1192881,119 53.5,119 C54.8807119,119 56,120.119288 56,121.5 C56,122.880712 54.8807119,124 53.5,124 Z M70.5,124 C69.1192881,124 68,122.880712 68,121.5 C68,120.119288 69.1192881,119 70.5,119 C71.8807119,119 73,120.119288 73,121.5 C73,122.880712 71.8807119,124 70.5,124 Z M87.5,124 C86.1192881,124 85,122.880712 85,121.5 C85,120.119288 86.1192881,119 87.5,119 C88.8807119,119 90,120.119288 90,121.5 C90,122.880712 88.8807119,124 87.5,124 Z M104.5,124 C103.119288,124 102,122.880712 102,121.5 C102,120.119288 103.119288,119 104.5,119 C105.880712,119 107,120.119288 107,121.5 C107,122.880712 105.880712,124 104.5,124 Z M121.5,124 C120.119288,124 119,122.880712 119,121.5 C119,120.119288 120.119288,119 121.5,119 C122.880712,119 124,120.119288 124,121.5 C124,122.880712 122.880712,124 121.5,124 Z M138.5,124 C137.119288,124 136,122.880712 136,121.5 C136,120.119288 137.119288,119 138.5,119 C139.880712,119 141,120.119288 141,121.5 C141,122.880712 139.880712,124 138.5,124 Z M155.5,124 C154.119288,124 153,122.880712 153,121.5 C153,120.119288 154.119288,119 155.5,119 C156.880712,119 158,120.119288 158,121.5 C158,122.880712 156.880712,124 155.5,124 Z M2.5,141 C1.11928813,141 0,139.880712 0,138.5 C0,137.119288 1.11928813,136 2.5,136 C3.88071187,136 5,137.119288 5,138.5 C5,139.880712 3.88071187,141 2.5,141 Z M19.5,141 C18.1192881,141 17,139.880712 17,138.5 C17,137.119288 18.1192881,136 19.5,136 C20.8807119,136 22,137.119288 22,138.5 C22,139.880712 20.8807119,141 19.5,141 Z M36.5,141 C35.1192881,141 34,139.880712 34,138.5 C34,137.119288 35.1192881,136 36.5,136 C37.8807119,136 39,137.119288 39,138.5 C39,139.880712 37.8807119,141 36.5,141 Z M53.5,141 C52.1192881,141 51,139.880712 51,138.5 C51,137.119288 52.1192881,136 53.5,136 C54.8807119,136 56,137.119288 56,138.5 C56,139.880712 54.8807119,141 53.5,141 Z M70.5,141 C69.1192881,141 68,139.880712 68,138.5 C68,137.119288 69.1192881,136 70.5,136 C71.8807119,136 73,137.119288 73,138.5 C73,139.880712 71.8807119,141 70.5,141 Z M87.5,141 C86.1192881,141 85,139.880712 85,138.5 C85,137.119288 86.1192881,136 87.5,136 C88.8807119,136 90,137.119288 90,138.5 C90,139.880712 88.8807119,141 87.5,141 Z M104.5,141 C103.119288,141 102,139.880712 102,138.5 C102,137.119288 103.119288,136 104.5,136 C105.880712,136 107,137.119288 107,138.5 C107,139.880712 105.880712,141 104.5,141 Z M121.5,141 C120.119288,141 119,139.880712 119,138.5 C119,137.119288 120.119288,136 121.5,136 C122.880712,136 124,137.119288 124,138.5 C124,139.880712 122.880712,141 121.5,141 Z M138.5,141 C137.119288,141 136,139.880712 136,138.5 C136,137.119288 137.119288,136 138.5,136 C139.880712,136 141,137.119288 141,138.5 C141,139.880712 139.880712,141 138.5,141 Z M155.5,141 C154.119288,141 153,139.880712 153,138.5 C153,137.119288 154.119288,136 155.5,136 C156.880712,136 158,137.119288 158,138.5 C158,139.880712 156.880712,141 155.5,141 Z M2.5,158 C1.11928813,158 0,156.880712 0,155.5 C0,154.119288 1.11928813,153 2.5,153 C3.88071187,153 5,154.119288 5,155.5 C5,156.880712 3.88071187,158 2.5,158 Z M19.5,158 C18.1192881,158 17,156.880712 17,155.5 C17,154.119288 18.1192881,153 19.5,153 C20.8807119,153 22,154.119288 22,155.5 C22,156.880712 20.8807119,158 19.5,158 Z M36.5,158 C35.1192881,158 34,156.880712 34,155.5 C34,154.119288 35.1192881,153 36.5,153 C37.8807119,153 39,154.119288 39,155.5 C39,156.880712 37.8807119,158 36.5,158 Z M53.5,158 C52.1192881,158 51,156.880712 51,155.5 C51,154.119288 52.1192881,153 53.5,153 C54.8807119,153 56,154.119288 56,155.5 C56,156.880712 54.8807119,158 53.5,158 Z M70.5,158 C69.1192881,158 68,156.880712 68,155.5 C68,154.119288 69.1192881,153 70.5,153 C71.8807119,153 73,154.119288 73,155.5 C73,156.880712 71.8807119,158 70.5,158 Z M87.5,158 C86.1192881,158 85,156.880712 85,155.5 C85,154.119288 86.1192881,153 87.5,153 C88.8807119,153 90,154.119288 90,155.5 C90,156.880712 88.8807119,158 87.5,158 Z M104.5,158 C103.119288,158 102,156.880712 102,155.5 C102,154.119288 103.119288,153 104.5,153 C105.880712,153 107,154.119288 107,155.5 C107,156.880712 105.880712,158 104.5,158 Z M121.5,158 C120.119288,158 119,156.880712 119,155.5 C119,154.119288 120.119288,153 121.5,153 C122.880712,153 124,154.119288 124,155.5 C124,156.880712 122.880712,158 121.5,158 Z M138.5,158 C137.119288,158 136,156.880712 136,155.5 C136,154.119288 137.119288,153 138.5,153 C139.880712,153 141,154.119288 141,155.5 C141,156.880712 139.880712,158 138.5,158 Z M155.5,158 C154.119288,158 153,156.880712 153,155.5 C153,154.119288 154.119288,153 155.5,153 C156.880712,153 158,154.119288 158,155.5 C158,156.880712 156.880712,158 155.5,158 Z" id="Combined-Shape-Copy-6"></path>
        </g>
    </g>
</svg>