<?xml version="1.0" encoding="UTF-8"?>
<svg width="150px" height="310px" viewBox="0 0 150 310" version="1.1" xmlns="http://www.w3.org/2000/svg" xmlns:xlink="http://www.w3.org/1999/xlink">
    <!-- Generator: Sketch 54.1 (76490) - https://sketchapp.com -->
    <title>dots-red</title>
    <desc>Created with Sketch.</desc>
    <g id="dots-red" stroke="none" stroke-width="1" fill="none" fill-rule="evenodd">
        <g id="Group-12" fill="#FF7374">
            <path d="M146,146 L146,144 L148,144 L148,146 L150,146 L150,148 L148,148 L148,150 L146,150 L146,148 L144,148 L144,146 L146,146 Z M130,146 L130,144 L132,144 L132,146 L134,146 L134,148 L132,148 L132,150 L130,150 L130,148 L128,148 L128,146 L130,146 Z M114,146 L114,144 L116,144 L116,146 L118,146 L118,148 L116,148 L116,150 L114,150 L114,148 L112,148 L112,146 L114,146 Z M98,146 L98,144 L100,144 L100,146 L102,146 L102,148 L100,148 L100,150 L98,150 L98,148 L96,148 L96,146 L98,146 Z M82,146 L82,144 L84,144 L84,146 L86,146 L86,148 L84,148 L84,150 L82,150 L82,148 L80,148 L80,146 L82,146 Z M66,146 L66,144 L68,144 L68,146 L70,146 L70,148 L68,148 L68,150 L66,150 L66,148 L64,148 L64,146 L66,146 Z M50,146 L50,144 L52,144 L52,146 L54,146 L54,148 L52,148 L52,150 L50,150 L50,148 L48,148 L48,146 L50,146 Z M34,146 L34,144 L36,144 L36,146 L38,146 L38,148 L36,148 L36,150 L34,150 L34,148 L32,148 L32,146 L34,146 Z M18,146 L18,144 L20,144 L20,146 L22,146 L22,148 L20,148 L20,150 L18,150 L18,148 L16,148 L16,146 L18,146 Z M2,146 L2,144 L4,144 L4,146 L6,146 L6,148 L4,148 L4,150 L2,150 L2,148 L0,148 L0,146 L2,146 Z M146,130 L146,128 L148,128 L148,130 L150,130 L150,132 L148,132 L148,134 L146,134 L146,132 L144,132 L144,130 L146,130 Z M130,130 L130,128 L132,128 L132,130 L134,130 L134,132 L132,132 L132,134 L130,134 L130,132 L128,132 L128,130 L130,130 Z M114,130 L114,128 L116,128 L116,130 L118,130 L118,132 L116,132 L116,134 L114,134 L114,132 L112,132 L112,130 L114,130 Z M98,130 L98,128 L100,128 L100,130 L102,130 L102,132 L100,132 L100,134 L98,134 L98,132 L96,132 L96,130 L98,130 Z M82,130 L82,128 L84,128 L84,130 L86,130 L86,132 L84,132 L84,134 L82,134 L82,132 L80,132 L80,130 L82,130 Z M66,130 L66,128 L68,128 L68,130 L70,130 L70,132 L68,132 L68,134 L66,134 L66,132 L64,132 L64,130 L66,130 Z M50,130 L50,128 L52,128 L52,130 L54,130 L54,132 L52,132 L52,134 L50,134 L50,132 L48,132 L48,130 L50,130 Z M34,130 L34,128 L36,128 L36,130 L38,130 L38,132 L36,132 L36,134 L34,134 L34,132 L32,132 L32,130 L34,130 Z M18,130 L18,128 L20,128 L20,130 L22,130 L22,132 L20,132 L20,134 L18,134 L18,132 L16,132 L16,130 L18,130 Z M2,130 L2,128 L4,128 L4,130 L6,130 L6,132 L4,132 L4,134 L2,134 L2,132 L0,132 L0,130 L2,130 Z M146,114 L146,112 L148,112 L148,114 L150,114 L150,116 L148,116 L148,118 L146,118 L146,116 L144,116 L144,114 L146,114 Z M130,114 L130,112 L132,112 L132,114 L134,114 L134,116 L132,116 L132,118 L130,118 L130,116 L128,116 L128,114 L130,114 Z M114,114 L114,112 L116,112 L116,114 L118,114 L118,116 L116,116 L116,118 L114,118 L114,116 L112,116 L112,114 L114,114 Z M98,114 L98,112 L100,112 L100,114 L102,114 L102,116 L100,116 L100,118 L98,118 L98,116 L96,116 L96,114 L98,114 Z M82,114 L82,112 L84,112 L84,114 L86,114 L86,116 L84,116 L84,118 L82,118 L82,116 L80,116 L80,114 L82,114 Z M66,114 L66,112 L68,112 L68,114 L70,114 L70,116 L68,116 L68,118 L66,118 L66,116 L64,116 L64,114 L66,114 Z M50,114 L50,112 L52,112 L52,114 L54,114 L54,116 L52,116 L52,118 L50,118 L50,116 L48,116 L48,114 L50,114 Z M34,114 L34,112 L36,112 L36,114 L38,114 L38,116 L36,116 L36,118 L34,118 L34,116 L32,116 L32,114 L34,114 Z M18,114 L18,112 L20,112 L20,114 L22,114 L22,116 L20,116 L20,118 L18,118 L18,116 L16,116 L16,114 L18,114 Z M2,114 L2,112 L4,112 L4,114 L6,114 L6,116 L4,116 L4,118 L2,118 L2,116 L0,116 L0,114 L2,114 Z M146,98 L146,96 L148,96 L148,98 L150,98 L150,100 L148,100 L148,102 L146,102 L146,100 L144,100 L144,98 L146,98 Z M130,98 L130,96 L132,96 L132,98 L134,98 L134,100 L132,100 L132,102 L130,102 L130,100 L128,100 L128,98 L130,98 Z M114,98 L114,96 L116,96 L116,98 L118,98 L118,100 L116,100 L116,102 L114,102 L114,100 L112,100 L112,98 L114,98 Z M98,98 L98,96 L100,96 L100,98 L102,98 L102,100 L100,100 L100,102 L98,102 L98,100 L96,100 L96,98 L98,98 Z M82,98 L82,96 L84,96 L84,98 L86,98 L86,100 L84,100 L84,102 L82,102 L82,100 L80,100 L80,98 L82,98 Z M66,98 L66,96 L68,96 L68,98 L70,98 L70,100 L68,100 L68,102 L66,102 L66,100 L64,100 L64,98 L66,98 Z M50,98 L50,96 L52,96 L52,98 L54,98 L54,100 L52,100 L52,102 L50,102 L50,100 L48,100 L48,98 L50,98 Z M34,98 L34,96 L36,96 L36,98 L38,98 L38,100 L36,100 L36,102 L34,102 L34,100 L32,100 L32,98 L34,98 Z M18,98 L18,96 L20,96 L20,98 L22,98 L22,100 L20,100 L20,102 L18,102 L18,100 L16,100 L16,98 L18,98 Z M2,98 L2,96 L4,96 L4,98 L6,98 L6,100 L4,100 L4,102 L2,102 L2,100 L0,100 L0,98 L2,98 Z M146,82 L146,80 L148,80 L148,82 L150,82 L150,84 L148,84 L148,86 L146,86 L146,84 L144,84 L144,82 L146,82 Z M130,82 L130,80 L132,80 L132,82 L134,82 L134,84 L132,84 L132,86 L130,86 L130,84 L128,84 L128,82 L130,82 Z M114,82 L114,80 L116,80 L116,82 L118,82 L118,84 L116,84 L116,86 L114,86 L114,84 L112,84 L112,82 L114,82 Z M98,82 L98,80 L100,80 L100,82 L102,82 L102,84 L100,84 L100,86 L98,86 L98,84 L96,84 L96,82 L98,82 Z M82,82 L82,80 L84,80 L84,82 L86,82 L86,84 L84,84 L84,86 L82,86 L82,84 L80,84 L80,82 L82,82 Z M66,82 L66,80 L68,80 L68,82 L70,82 L70,84 L68,84 L68,86 L66,86 L66,84 L64,84 L64,82 L66,82 Z M50,82 L50,80 L52,80 L52,82 L54,82 L54,84 L52,84 L52,86 L50,86 L50,84 L48,84 L48,82 L50,82 Z M34,82 L34,80 L36,80 L36,82 L38,82 L38,84 L36,84 L36,86 L34,86 L34,84 L32,84 L32,82 L34,82 Z M18,82 L18,80 L20,80 L20,82 L22,82 L22,84 L20,84 L20,86 L18,86 L18,84 L16,84 L16,82 L18,82 Z M2,82 L2,80 L4,80 L4,82 L6,82 L6,84 L4,84 L4,86 L2,86 L2,84 L0,84 L0,82 L2,82 Z M146,66 L146,64 L148,64 L148,66 L150,66 L150,68 L148,68 L148,70 L146,70 L146,68 L144,68 L144,66 L146,66 Z M130,66 L130,64 L132,64 L132,66 L134,66 L134,68 L132,68 L132,70 L130,70 L130,68 L128,68 L128,66 L130,66 Z M114,66 L114,64 L116,64 L116,66 L118,66 L118,68 L116,68 L116,70 L114,70 L114,68 L112,68 L112,66 L114,66 Z M98,66 L98,64 L100,64 L100,66 L102,66 L102,68 L100,68 L100,70 L98,70 L98,68 L96,68 L96,66 L98,66 Z M82,66 L82,64 L84,64 L84,66 L86,66 L86,68 L84,68 L84,70 L82,70 L82,68 L80,68 L80,66 L82,66 Z M66,66 L66,64 L68,64 L68,66 L70,66 L70,68 L68,68 L68,70 L66,70 L66,68 L64,68 L64,66 L66,66 Z M50,66 L50,64 L52,64 L52,66 L54,66 L54,68 L52,68 L52,70 L50,70 L50,68 L48,68 L48,66 L50,66 Z M34,66 L34,64 L36,64 L36,66 L38,66 L38,68 L36,68 L36,70 L34,70 L34,68 L32,68 L32,66 L34,66 Z M18,66 L18,64 L20,64 L20,66 L22,66 L22,68 L20,68 L20,70 L18,70 L18,68 L16,68 L16,66 L18,66 Z M2,66 L2,64 L4,64 L4,66 L6,66 L6,68 L4,68 L4,70 L2,70 L2,68 L0,68 L0,66 L2,66 Z M146,50 L146,48 L148,48 L148,50 L150,50 L150,52 L148,52 L148,54 L146,54 L146,52 L144,52 L144,50 L146,50 Z M130,50 L130,48 L132,48 L132,50 L134,50 L134,52 L132,52 L132,54 L130,54 L130,52 L128,52 L128,50 L130,50 Z M114,50 L114,48 L116,48 L116,50 L118,50 L118,52 L116,52 L116,54 L114,54 L114,52 L112,52 L112,50 L114,50 Z M98,50 L98,48 L100,48 L100,50 L102,50 L102,52 L100,52 L100,54 L98,54 L98,52 L96,52 L96,50 L98,50 Z M82,50 L82,48 L84,48 L84,50 L86,50 L86,52 L84,52 L84,54 L82,54 L82,52 L80,52 L80,50 L82,50 Z M66,50 L66,48 L68,48 L68,50 L70,50 L70,52 L68,52 L68,54 L66,54 L66,52 L64,52 L64,50 L66,50 Z M50,50 L50,48 L52,48 L52,50 L54,50 L54,52 L52,52 L52,54 L50,54 L50,52 L48,52 L48,50 L50,50 Z M34,50 L34,48 L36,48 L36,50 L38,50 L38,52 L36,52 L36,54 L34,54 L34,52 L32,52 L32,50 L34,50 Z M18,50 L18,48 L20,48 L20,50 L22,50 L22,52 L20,52 L20,54 L18,54 L18,52 L16,52 L16,50 L18,50 Z M2,50 L2,48 L4,48 L4,50 L6,50 L6,52 L4,52 L4,54 L2,54 L2,52 L0,52 L0,50 L2,50 Z M146,34 L146,32 L148,32 L148,34 L150,34 L150,36 L148,36 L148,38 L146,38 L146,36 L144,36 L144,34 L146,34 Z M130,34 L130,32 L132,32 L132,34 L134,34 L134,36 L132,36 L132,38 L130,38 L130,36 L128,36 L128,34 L130,34 Z M114,34 L114,32 L116,32 L116,34 L118,34 L118,36 L116,36 L116,38 L114,38 L114,36 L112,36 L112,34 L114,34 Z M98,34 L98,32 L100,32 L100,34 L102,34 L102,36 L100,36 L100,38 L98,38 L98,36 L96,36 L96,34 L98,34 Z M82,34 L82,32 L84,32 L84,34 L86,34 L86,36 L84,36 L84,38 L82,38 L82,36 L80,36 L80,34 L82,34 Z M66,34 L66,32 L68,32 L68,34 L70,34 L70,36 L68,36 L68,38 L66,38 L66,36 L64,36 L64,34 L66,34 Z M50,34 L50,32 L52,32 L52,34 L54,34 L54,36 L52,36 L52,38 L50,38 L50,36 L48,36 L48,34 L50,34 Z M34,34 L34,32 L36,32 L36,34 L38,34 L38,36 L36,36 L36,38 L34,38 L34,36 L32,36 L32,34 L34,34 Z M18,34 L18,32 L20,32 L20,34 L22,34 L22,36 L20,36 L20,38 L18,38 L18,36 L16,36 L16,34 L18,34 Z M2,34 L2,32 L4,32 L4,34 L6,34 L6,36 L4,36 L4,38 L2,38 L2,36 L0,36 L0,34 L2,34 Z M146,18 L146,16 L148,16 L148,18 L150,18 L150,20 L148,20 L148,22 L146,22 L146,20 L144,20 L144,18 L146,18 Z M130,18 L130,16 L132,16 L132,18 L134,18 L134,20 L132,20 L132,22 L130,22 L130,20 L128,20 L128,18 L130,18 Z M114,18 L114,16 L116,16 L116,18 L118,18 L118,20 L116,20 L116,22 L114,22 L114,20 L112,20 L112,18 L114,18 Z M98,18 L98,16 L100,16 L100,18 L102,18 L102,20 L100,20 L100,22 L98,22 L98,20 L96,20 L96,18 L98,18 Z M82,18 L82,16 L84,16 L84,18 L86,18 L86,20 L84,20 L84,22 L82,22 L82,20 L80,20 L80,18 L82,18 Z M66,18 L66,16 L68,16 L68,18 L70,18 L70,20 L68,20 L68,22 L66,22 L66,20 L64,20 L64,18 L66,18 Z M50,18 L50,16 L52,16 L52,18 L54,18 L54,20 L52,20 L52,22 L50,22 L50,20 L48,20 L48,18 L50,18 Z M34,18 L34,16 L36,16 L36,18 L38,18 L38,20 L36,20 L36,22 L34,22 L34,20 L32,20 L32,18 L34,18 Z M18,18 L18,16 L20,16 L20,18 L22,18 L22,20 L20,20 L20,22 L18,22 L18,20 L16,20 L16,18 L18,18 Z M2,18 L2,16 L4,16 L4,18 L6,18 L6,20 L4,20 L4,22 L2,22 L2,20 L0,20 L0,18 L2,18 Z M146,2 L146,0 L148,0 L148,2 L150,2 L150,4 L148,4 L148,6 L146,6 L146,4 L144,4 L144,2 L146,2 Z M130,2 L130,0 L132,0 L132,2 L134,2 L134,4 L132,4 L132,6 L130,6 L130,4 L128,4 L128,2 L130,2 Z M114,2 L114,0 L116,0 L116,2 L118,2 L118,4 L116,4 L116,6 L114,6 L114,4 L112,4 L112,2 L114,2 Z M98,2 L98,0 L100,0 L100,2 L102,2 L102,4 L100,4 L100,6 L98,6 L98,4 L96,4 L96,2 L98,2 Z M82,2 L82,0 L84,0 L84,2 L86,2 L86,4 L84,4 L84,6 L82,6 L82,4 L80,4 L80,2 L82,2 Z M66,2 L66,0 L68,0 L68,2 L70,2 L70,4 L68,4 L68,6 L66,6 L66,4 L64,4 L64,2 L66,2 Z M50,2 L50,0 L52,0 L52,2 L54,2 L54,4 L52,4 L52,6 L50,6 L50,4 L48,4 L48,2 L50,2 Z M34,2 L34,0 L36,0 L36,2 L38,2 L38,4 L36,4 L36,6 L34,6 L34,4 L32,4 L32,2 L34,2 Z M18,2 L18,0 L20,0 L20,2 L22,2 L22,4 L20,4 L20,6 L18,6 L18,4 L16,4 L16,2 L18,2 Z M2,2 L2,0 L4,0 L4,2 L6,2 L6,4 L4,4 L4,6 L2,6 L2,4 L0,4 L0,2 L2,2 Z" id="Combined-Shape-Copy-6"></path>
            <path d="M146,306 L146,304 L148,304 L148,306 L150,306 L150,308 L148,308 L148,310 L146,310 L146,308 L144,308 L144,306 L146,306 Z M130,306 L130,304 L132,304 L132,306 L134,306 L134,308 L132,308 L132,310 L130,310 L130,308 L128,308 L128,306 L130,306 Z M114,306 L114,304 L116,304 L116,306 L118,306 L118,308 L116,308 L116,310 L114,310 L114,308 L112,308 L112,306 L114,306 Z M98,306 L98,304 L100,304 L100,306 L102,306 L102,308 L100,308 L100,310 L98,310 L98,308 L96,308 L96,306 L98,306 Z M82,306 L82,304 L84,304 L84,306 L86,306 L86,308 L84,308 L84,310 L82,310 L82,308 L80,308 L80,306 L82,306 Z M66,306 L66,304 L68,304 L68,306 L70,306 L70,308 L68,308 L68,310 L66,310 L66,308 L64,308 L64,306 L66,306 Z M50,306 L50,304 L52,304 L52,306 L54,306 L54,308 L52,308 L52,310 L50,310 L50,308 L48,308 L48,306 L50,306 Z M34,306 L34,304 L36,304 L36,306 L38,306 L38,308 L36,308 L36,310 L34,310 L34,308 L32,308 L32,306 L34,306 Z M18,306 L18,304 L20,304 L20,306 L22,306 L22,308 L20,308 L20,310 L18,310 L18,308 L16,308 L16,306 L18,306 Z M2,306 L2,304 L4,304 L4,306 L6,306 L6,308 L4,308 L4,310 L2,310 L2,308 L0,308 L0,306 L2,306 Z M146,290 L146,288 L148,288 L148,290 L150,290 L150,292 L148,292 L148,294 L146,294 L146,292 L144,292 L144,290 L146,290 Z M130,290 L130,288 L132,288 L132,290 L134,290 L134,292 L132,292 L132,294 L130,294 L130,292 L128,292 L128,290 L130,290 Z M114,290 L114,288 L116,288 L116,290 L118,290 L118,292 L116,292 L116,294 L114,294 L114,292 L112,292 L112,290 L114,290 Z M98,290 L98,288 L100,288 L100,290 L102,290 L102,292 L100,292 L100,294 L98,294 L98,292 L96,292 L96,290 L98,290 Z M82,290 L82,288 L84,288 L84,290 L86,290 L86,292 L84,292 L84,294 L82,294 L82,292 L80,292 L80,290 L82,290 Z M66,290 L66,288 L68,288 L68,290 L70,290 L70,292 L68,292 L68,294 L66,294 L66,292 L64,292 L64,290 L66,290 Z M50,290 L50,288 L52,288 L52,290 L54,290 L54,292 L52,292 L52,294 L50,294 L50,292 L48,292 L48,290 L50,290 Z M34,290 L34,288 L36,288 L36,290 L38,290 L38,292 L36,292 L36,294 L34,294 L34,292 L32,292 L32,290 L34,290 Z M18,290 L18,288 L20,288 L20,290 L22,290 L22,292 L20,292 L20,294 L18,294 L18,292 L16,292 L16,290 L18,290 Z M2,290 L2,288 L4,288 L4,290 L6,290 L6,292 L4,292 L4,294 L2,294 L2,292 L0,292 L0,290 L2,290 Z M146,274 L146,272 L148,272 L148,274 L150,274 L150,276 L148,276 L148,278 L146,278 L146,276 L144,276 L144,274 L146,274 Z M130,274 L130,272 L132,272 L132,274 L134,274 L134,276 L132,276 L132,278 L130,278 L130,276 L128,276 L128,274 L130,274 Z M114,274 L114,272 L116,272 L116,274 L118,274 L118,276 L116,276 L116,278 L114,278 L114,276 L112,276 L112,274 L114,274 Z M98,274 L98,272 L100,272 L100,274 L102,274 L102,276 L100,276 L100,278 L98,278 L98,276 L96,276 L96,274 L98,274 Z M82,274 L82,272 L84,272 L84,274 L86,274 L86,276 L84,276 L84,278 L82,278 L82,276 L80,276 L80,274 L82,274 Z M66,274 L66,272 L68,272 L68,274 L70,274 L70,276 L68,276 L68,278 L66,278 L66,276 L64,276 L64,274 L66,274 Z M50,274 L50,272 L52,272 L52,274 L54,274 L54,276 L52,276 L52,278 L50,278 L50,276 L48,276 L48,274 L50,274 Z M34,274 L34,272 L36,272 L36,274 L38,274 L38,276 L36,276 L36,278 L34,278 L34,276 L32,276 L32,274 L34,274 Z M18,274 L18,272 L20,272 L20,274 L22,274 L22,276 L20,276 L20,278 L18,278 L18,276 L16,276 L16,274 L18,274 Z M2,274 L2,272 L4,272 L4,274 L6,274 L6,276 L4,276 L4,278 L2,278 L2,276 L0,276 L0,274 L2,274 Z M146,258 L146,256 L148,256 L148,258 L150,258 L150,260 L148,260 L148,262 L146,262 L146,260 L144,260 L144,258 L146,258 Z M130,258 L130,256 L132,256 L132,258 L134,258 L134,260 L132,260 L132,262 L130,262 L130,260 L128,260 L128,258 L130,258 Z M114,258 L114,256 L116,256 L116,258 L118,258 L118,260 L116,260 L116,262 L114,262 L114,260 L112,260 L112,258 L114,258 Z M98,258 L98,256 L100,256 L100,258 L102,258 L102,260 L100,260 L100,262 L98,262 L98,260 L96,260 L96,258 L98,258 Z M82,258 L82,256 L84,256 L84,258 L86,258 L86,260 L84,260 L84,262 L82,262 L82,260 L80,260 L80,258 L82,258 Z M66,258 L66,256 L68,256 L68,258 L70,258 L70,260 L68,260 L68,262 L66,262 L66,260 L64,260 L64,258 L66,258 Z M50,258 L50,256 L52,256 L52,258 L54,258 L54,260 L52,260 L52,262 L50,262 L50,260 L48,260 L48,258 L50,258 Z M34,258 L34,256 L36,256 L36,258 L38,258 L38,260 L36,260 L36,262 L34,262 L34,260 L32,260 L32,258 L34,258 Z M18,258 L18,256 L20,256 L20,258 L22,258 L22,260 L20,260 L20,262 L18,262 L18,260 L16,260 L16,258 L18,258 Z M2,258 L2,256 L4,256 L4,258 L6,258 L6,260 L4,260 L4,262 L2,262 L2,260 L0,260 L0,258 L2,258 Z M146,242 L146,240 L148,240 L148,242 L150,242 L150,244 L148,244 L148,246 L146,246 L146,244 L144,244 L144,242 L146,242 Z M130,242 L130,240 L132,240 L132,242 L134,242 L134,244 L132,244 L132,246 L130,246 L130,244 L128,244 L128,242 L130,242 Z M114,242 L114,240 L116,240 L116,242 L118,242 L118,244 L116,244 L116,246 L114,246 L114,244 L112,244 L112,242 L114,242 Z M98,242 L98,240 L100,240 L100,242 L102,242 L102,244 L100,244 L100,246 L98,246 L98,244 L96,244 L96,242 L98,242 Z M82,242 L82,240 L84,240 L84,242 L86,242 L86,244 L84,244 L84,246 L82,246 L82,244 L80,244 L80,242 L82,242 Z M66,242 L66,240 L68,240 L68,242 L70,242 L70,244 L68,244 L68,246 L66,246 L66,244 L64,244 L64,242 L66,242 Z M50,242 L50,240 L52,240 L52,242 L54,242 L54,244 L52,244 L52,246 L50,246 L50,244 L48,244 L48,242 L50,242 Z M34,242 L34,240 L36,240 L36,242 L38,242 L38,244 L36,244 L36,246 L34,246 L34,244 L32,244 L32,242 L34,242 Z M18,242 L18,240 L20,240 L20,242 L22,242 L22,244 L20,244 L20,246 L18,246 L18,244 L16,244 L16,242 L18,242 Z M2,242 L2,240 L4,240 L4,242 L6,242 L6,244 L4,244 L4,246 L2,246 L2,244 L0,244 L0,242 L2,242 Z M146,226 L146,224 L148,224 L148,226 L150,226 L150,228 L148,228 L148,230 L146,230 L146,228 L144,228 L144,226 L146,226 Z M130,226 L130,224 L132,224 L132,226 L134,226 L134,228 L132,228 L132,230 L130,230 L130,228 L128,228 L128,226 L130,226 Z M114,226 L114,224 L116,224 L116,226 L118,226 L118,228 L116,228 L116,230 L114,230 L114,228 L112,228 L112,226 L114,226 Z M98,226 L98,224 L100,224 L100,226 L102,226 L102,228 L100,228 L100,230 L98,230 L98,228 L96,228 L96,226 L98,226 Z M82,226 L82,224 L84,224 L84,226 L86,226 L86,228 L84,228 L84,230 L82,230 L82,228 L80,228 L80,226 L82,226 Z M66,226 L66,224 L68,224 L68,226 L70,226 L70,228 L68,228 L68,230 L66,230 L66,228 L64,228 L64,226 L66,226 Z M50,226 L50,224 L52,224 L52,226 L54,226 L54,228 L52,228 L52,230 L50,230 L50,228 L48,228 L48,226 L50,226 Z M34,226 L34,224 L36,224 L36,226 L38,226 L38,228 L36,228 L36,230 L34,230 L34,228 L32,228 L32,226 L34,226 Z M18,226 L18,224 L20,224 L20,226 L22,226 L22,228 L20,228 L20,230 L18,230 L18,228 L16,228 L16,226 L18,226 Z M2,226 L2,224 L4,224 L4,226 L6,226 L6,228 L4,228 L4,230 L2,230 L2,228 L0,228 L0,226 L2,226 Z M146,210 L146,208 L148,208 L148,210 L150,210 L150,212 L148,212 L148,214 L146,214 L146,212 L144,212 L144,210 L146,210 Z M130,210 L130,208 L132,208 L132,210 L134,210 L134,212 L132,212 L132,214 L130,214 L130,212 L128,212 L128,210 L130,210 Z M114,210 L114,208 L116,208 L116,210 L118,210 L118,212 L116,212 L116,214 L114,214 L114,212 L112,212 L112,210 L114,210 Z M98,210 L98,208 L100,208 L100,210 L102,210 L102,212 L100,212 L100,214 L98,214 L98,212 L96,212 L96,210 L98,210 Z M82,210 L82,208 L84,208 L84,210 L86,210 L86,212 L84,212 L84,214 L82,214 L82,212 L80,212 L80,210 L82,210 Z M66,210 L66,208 L68,208 L68,210 L70,210 L70,212 L68,212 L68,214 L66,214 L66,212 L64,212 L64,210 L66,210 Z M50,210 L50,208 L52,208 L52,210 L54,210 L54,212 L52,212 L52,214 L50,214 L50,212 L48,212 L48,210 L50,210 Z M34,210 L34,208 L36,208 L36,210 L38,210 L38,212 L36,212 L36,214 L34,214 L34,212 L32,212 L32,210 L34,210 Z M18,210 L18,208 L20,208 L20,210 L22,210 L22,212 L20,212 L20,214 L18,214 L18,212 L16,212 L16,210 L18,210 Z M2,210 L2,208 L4,208 L4,210 L6,210 L6,212 L4,212 L4,214 L2,214 L2,212 L0,212 L0,210 L2,210 Z M146,194 L146,192 L148,192 L148,194 L150,194 L150,196 L148,196 L148,198 L146,198 L146,196 L144,196 L144,194 L146,194 Z M130,194 L130,192 L132,192 L132,194 L134,194 L134,196 L132,196 L132,198 L130,198 L130,196 L128,196 L128,194 L130,194 Z M114,194 L114,192 L116,192 L116,194 L118,194 L118,196 L116,196 L116,198 L114,198 L114,196 L112,196 L112,194 L114,194 Z M98,194 L98,192 L100,192 L100,194 L102,194 L102,196 L100,196 L100,198 L98,198 L98,196 L96,196 L96,194 L98,194 Z M82,194 L82,192 L84,192 L84,194 L86,194 L86,196 L84,196 L84,198 L82,198 L82,196 L80,196 L80,194 L82,194 Z M66,194 L66,192 L68,192 L68,194 L70,194 L70,196 L68,196 L68,198 L66,198 L66,196 L64,196 L64,194 L66,194 Z M50,194 L50,192 L52,192 L52,194 L54,194 L54,196 L52,196 L52,198 L50,198 L50,196 L48,196 L48,194 L50,194 Z M34,194 L34,192 L36,192 L36,194 L38,194 L38,196 L36,196 L36,198 L34,198 L34,196 L32,196 L32,194 L34,194 Z M18,194 L18,192 L20,192 L20,194 L22,194 L22,196 L20,196 L20,198 L18,198 L18,196 L16,196 L16,194 L18,194 Z M2,194 L2,192 L4,192 L4,194 L6,194 L6,196 L4,196 L4,198 L2,198 L2,196 L0,196 L0,194 L2,194 Z M146,178 L146,176 L148,176 L148,178 L150,178 L150,180 L148,180 L148,182 L146,182 L146,180 L144,180 L144,178 L146,178 Z M130,178 L130,176 L132,176 L132,178 L134,178 L134,180 L132,180 L132,182 L130,182 L130,180 L128,180 L128,178 L130,178 Z M114,178 L114,176 L116,176 L116,178 L118,178 L118,180 L116,180 L116,182 L114,182 L114,180 L112,180 L112,178 L114,178 Z M98,178 L98,176 L100,176 L100,178 L102,178 L102,180 L100,180 L100,182 L98,182 L98,180 L96,180 L96,178 L98,178 Z M82,178 L82,176 L84,176 L84,178 L86,178 L86,180 L84,180 L84,182 L82,182 L82,180 L80,180 L80,178 L82,178 Z M66,178 L66,176 L68,176 L68,178 L70,178 L70,180 L68,180 L68,182 L66,182 L66,180 L64,180 L64,178 L66,178 Z M50,178 L50,176 L52,176 L52,178 L54,178 L54,180 L52,180 L52,182 L50,182 L50,180 L48,180 L48,178 L50,178 Z M34,178 L34,176 L36,176 L36,178 L38,178 L38,180 L36,180 L36,182 L34,182 L34,180 L32,180 L32,178 L34,178 Z M18,178 L18,176 L20,176 L20,178 L22,178 L22,180 L20,180 L20,182 L18,182 L18,180 L16,180 L16,178 L18,178 Z M2,178 L2,176 L4,176 L4,178 L6,178 L6,180 L4,180 L4,182 L2,182 L2,180 L0,180 L0,178 L2,178 Z M146,162 L146,160 L148,160 L148,162 L150,162 L150,164 L148,164 L148,166 L146,166 L146,164 L144,164 L144,162 L146,162 Z M130,162 L130,160 L132,160 L132,162 L134,162 L134,164 L132,164 L132,166 L130,166 L130,164 L128,164 L128,162 L130,162 Z M114,162 L114,160 L116,160 L116,162 L118,162 L118,164 L116,164 L116,166 L114,166 L114,164 L112,164 L112,162 L114,162 Z M98,162 L98,160 L100,160 L100,162 L102,162 L102,164 L100,164 L100,166 L98,166 L98,164 L96,164 L96,162 L98,162 Z M82,162 L82,160 L84,160 L84,162 L86,162 L86,164 L84,164 L84,166 L82,166 L82,164 L80,164 L80,162 L82,162 Z M66,162 L66,160 L68,160 L68,162 L70,162 L70,164 L68,164 L68,166 L66,166 L66,164 L64,164 L64,162 L66,162 Z M50,162 L50,160 L52,160 L52,162 L54,162 L54,164 L52,164 L52,166 L50,166 L50,164 L48,164 L48,162 L50,162 Z M34,162 L34,160 L36,160 L36,162 L38,162 L38,164 L36,164 L36,166 L34,166 L34,164 L32,164 L32,162 L34,162 Z M18,162 L18,160 L20,160 L20,162 L22,162 L22,164 L20,164 L20,166 L18,166 L18,164 L16,164 L16,162 L18,162 Z M2,162 L2,160 L4,160 L4,162 L6,162 L6,164 L4,164 L4,166 L2,166 L2,164 L0,164 L0,162 L2,162 Z" id="Combined-Shape-Copy-9"></path>
        </g>
    </g>
</svg>